<?xml version="1.0" encoding="utf-8"?>
<!-- Generator: Adobe Illustrator 20.1.0, SVG Export Plug-In . SVG Version: 6.00 Build 0)  -->
<svg version="1.1" id="Layer_1" xmlns="http://www.w3.org/2000/svg" xmlns:xlink="http://www.w3.org/1999/xlink" x="0px" y="0px"
	 viewBox="0 0 81.8 74.3" style="enable-background:new 0 0 81.8 74.3;" xml:space="preserve">
<style type="text/css">
	.st0{fill:#0B95D3;}
	.st1{fill:#F2684B;}
	.st2{fill:#FFF9F6;}
</style>
<g>
	<path class="st0" d="M30.1,34.8H13.6c-4.1,0-7.4-3.3-7.4-7.4V10.8c0-4.1,3.3-7.4,7.4-7.4h16.6c4.1,0,7.4,3.3,7.4,7.4v16.6
		C37.5,31.5,34.2,34.8,30.1,34.8z"/>
	<path class="st0" d="M67.1,34.8H50.5c-4.1,0-7.4-3.3-7.4-7.4V10.8c0-4.1,3.3-7.4,7.4-7.4h16.6c4.1,0,7.4,3.3,7.4,7.4v16.6
		C74.4,31.5,71.1,34.8,67.1,34.8z"/>
	<path class="st0" d="M30.1,71.7H13.5c-4.1,0-7.4-3.3-7.4-7.4V47.7c0-4.1,3.3-7.4,7.4-7.4h16.6c4.1,0,7.4,3.3,7.4,7.4v16.6
		C37.5,68.4,34.2,71.7,30.1,71.7z"/>
	<path class="st1" d="M67,71.7H50.5c-4.1,0-7.4-3.3-7.4-7.4V47.7c0-4.1,3.3-7.4,7.4-7.4H67c4.1,0,7.4,3.3,7.4,7.4v16.6
		C74.4,68.4,71.1,71.7,67,71.7z"/>
	<path class="st2" d="M65.2,22.8H52.8c-1.8,0-3.3-1.5-3.3-3.3v0c0-1.8,1.5-3.3,3.3-3.3h12.4c1.8,0,3.3,1.5,3.3,3.3v0
		C68.5,21.4,67,22.8,65.2,22.8z"/>
	<path class="st2" d="M65.2,55.1H52.8c-1.8,0-3.3-1.5-3.3-3.3v0c0-1.8,1.5-3.3,3.3-3.3h12.4c1.8,0,3.3,1.5,3.3,3.3v0
		C68.5,53.6,67,55.1,65.2,55.1z"/>
	<path class="st2" d="M65.2,64.3H52.8c-1.8,0-3.3-1.5-3.3-3.3v0c0-1.8,1.5-3.3,3.3-3.3h12.4c1.8,0,3.3,1.5,3.3,3.3v0
		C68.5,62.9,67,64.3,65.2,64.3z"/>
	<path class="st2" d="M28.3,22.8H15.8c-1.8,0-3.3-1.5-3.3-3.3v0c0-1.8,1.5-3.3,3.3-3.3h12.4c1.8,0,3.3,1.5,3.3,3.3v0
		C31.5,21.4,30.1,22.8,28.3,22.8z"/>
	<path class="st2" d="M18.8,25.3V12.9c0-1.8,1.5-3.3,3.3-3.3h0c1.8,0,3.3,1.5,3.3,3.3v12.4c0,1.8-1.5,3.3-3.3,3.3h0
		C20.3,28.6,18.8,27.1,18.8,25.3z"/>
	<path class="st2" d="M23.9,63.2l-8.8-8.8c-1.3-1.3-1.3-3.4,0-4.6l0,0c1.3-1.3,3.4-1.3,4.6,0l8.8,8.8c1.3,1.3,1.3,3.4,0,4.6l0,0
		C27.3,64.4,25.2,64.4,23.9,63.2z"/>
	<path class="st2" d="M15.5,58.9l8.8-8.8c1.3-1.3,3.4-1.3,4.6,0l0,0c1.3,1.3,1.3,3.4,0,4.6l-8.8,8.8c-1.3,1.3-3.4,1.3-4.6,0l0,0
		C14.3,62.3,14.3,60.2,15.5,58.9z"/>
</g>
</svg>
