<?xml version="1.0" encoding="utf-8"?>
<!-- Generator: Adobe Illustrator 20.1.0, SVG Export Plug-In . SVG Version: 6.00 Build 0)  -->
<svg version="1.1" id="Layer_1" xmlns="http://www.w3.org/2000/svg" xmlns:xlink="http://www.w3.org/1999/xlink" x="0px" y="0px"
	 viewBox="0 0 101.7 182.3" style="enable-background:new 0 0 101.7 182.3;" xml:space="preserve">
<style type="text/css">
	.st0{fill:#FCD9D2;}
</style>
<g>
	<path class="st0" d="M27,96.7c4.5,4.3,7.3,9.4,8.6,15.2c0.9,4,1.3,8.1,1.7,12.2c0.3,3.2-2.1,5.6-5,5.7c-3.1,0.1-5.3-2-5.4-5.4
		c-0.2-4.6-0.8-9.2-2.6-13.5c-2.7-6.4-7.5-9.7-14.5-9.9c-3-0.1-5.2-1.9-5.5-4.6c-0.3-2.5,1.3-5,4.1-5.8c13-3.6,25.9-7.1,38.9-10.6
		c15-4.1,30-8.1,45-12.1c3.1-0.8,6.1,0.7,6.8,3.6c0.8,3-0.9,5.8-4.2,6.7c-8.5,2.3-17,4.6-25.4,6.9C55.7,88.8,41.8,92.5,28,96.3
		C27.8,96.3,27.6,96.4,27,96.7z"/>
	<path class="st0" d="M99.2,27.2c0,2.8-1.5,4.6-4.9,5.5c-9.3,2.5-18.5,5-27.8,7.5C48.3,45.2,30.1,50.1,11.9,55
		c-2.4,0.7-4.5,0.5-6.3-1.4c-2.8-3-1.2-7.5,3-8.7c5.6-1.5,11.2-3,16.8-4.5c22.2-6,44.4-12,66.6-18C95.9,21.4,99.2,23.6,99.2,27.2z"
		/>
	<path class="st0" d="M99.2,49.3c0,3.5-1.6,5.3-4.7,6.2c-8,2.2-16,4.3-23.9,6.5c-19.5,5.3-39,10.5-58.4,15.8
		c-2.5,0.7-4.8,0.7-6.6-1.4c-2.7-3.1-1.1-7.5,3.2-8.6c5.3-1.5,10.6-2.9,16-4.3c22.3-6,44.5-12,66.8-18c1.4-0.4,3.1-0.4,4.5,0
		C98.1,46,99.2,47.8,99.2,49.3z"/>
	<path class="st0" d="M26.4,28.1c-2.9,0-5.2-1.8-5.5-4.2c-0.5-2.9,0.9-5.3,3.8-6.1c3.7-1.1,7.5-2.1,11.3-3.1
		c13.2-3.6,26.5-7.1,39.7-10.7c3.6-1,6.3,0.4,7.2,3.7c0.8,2.9-1,5.6-4.4,6.5c-16.9,4.6-33.7,9.1-50.6,13.7
		C27.2,28.1,26.5,28.1,26.4,28.1z"/>
	<path class="st0" d="M17.7,135.8c0.6,0,1.3-0.1,1.9-0.1c21.4,0,42.9,0,64.3,0c1.9,0,2.3,0.6,2.3,2.3c-0.1,5.4,0,5.4-5.4,5.4
		c-20.3,0-40.6,0-60.9,0c-2.5,0-2.5,0-2.5-2.5c0-1.5,0-3,0-4.5C17.5,136.2,17.6,136.1,17.7,135.8z"/>
	<path class="st0" d="M66.2,122.8c0.5-8.3,2.2-16.2,7.4-22.9c4.5-5.7,10.4-8.7,17.6-9.2c1.4-0.1,2.8-0.2,4.1,0.1
		c2.5,0.5,4.1,2.8,3.9,5.5c-0.2,2.4-2.2,4.5-4.6,4.7c-10.2,0.9-15.2,5.4-17,15.5c-0.4,2.4-0.6,4.9-0.8,7.3c-0.2,3.7-2.2,6.1-5.5,6
		c-3.1-0.1-5.2-2.5-5.1-6.1C66.2,123.4,66.2,123.1,66.2,122.8z"/>
	<path class="st0" d="M81.4,147.3c-0.5,2.3-0.9,4.4-1.4,6.5c-0.1,0.4-0.7,0.7-1.1,0.9c-0.4,0.2-0.9,0-1.4,0c-17.1,0-34.1,0-51.2,0
		c-1.9,0-2.8-0.4-3-2.4c-0.1-1.6-0.6-3.2-1-5C41.9,147.3,61.5,147.3,81.4,147.3z"/>
	<path class="st0" d="M27.4,170c16.3,0,32.5,0,49,0c-0.3,0.9-0.6,1.7-0.9,2.4c-2.7,5-6.7,7.9-12.6,7.8c-7.7,0-15.5,0-23.2,0
		C34.2,180.2,28.4,175.5,27.4,170z"/>
	<path class="st0" d="M24.6,158.6c18.2,0,36.1,0,54.3,0c-0.5,2.4-0.9,4.8-1.6,7c-0.1,0.3-1.2,0.5-1.9,0.5c-12.3,0-24.6,0-36.9,0
		c-3.6,0-7.2,0-10.8,0c-1.2,0-1.7-0.4-1.9-1.6C25.5,162.7,25.1,160.8,24.6,158.6z"/>
</g>
</svg>
