<?xml version="1.0" encoding="utf-8"?>
<!-- Generator: Adobe Illustrator 20.1.0, SVG Export Plug-In . SVG Version: 6.00 Build 0)  -->
<svg version="1.1" id="Layer_1" xmlns="http://www.w3.org/2000/svg" xmlns:xlink="http://www.w3.org/1999/xlink" x="0px" y="0px"
	 viewBox="0 0 81.8 74.3" style="enable-background:new 0 0 81.8 74.3;" xml:space="preserve">
<style type="text/css">
	.st0{fill:#020202;}
</style>
<g>
	<path class="st0" d="M2.4,3.4c0.2-0.2,0.5-0.1,0.7-0.1c0.1,0,0.1,0.2,0.1,0.2c0.1,0.5,0.2,1,0.2,1.5c0,0.4,0.3,0.5,0.6,0.6
		c0.2,0.1,0.4-0.1,0.6-0.3c0.1-0.1,0.1-0.2,0-0.4c-0.1-0.5,0-1-0.1-1.5c0-0.2,0.1-0.3,0.3-0.3c0.5,0,0.5,0,0.6,0.5
		c0,0.2,0,0.3,0,0.5C5.5,4.9,5.7,5.3,5.9,5.7c0,0,0,0.1,0.1,0.1c0.1,0.1,0.8-0.3,0.8-0.5c0-0.6,0-1.1,0-1.7c0-0.2,0.1-0.3,0.3-0.3
		c0.1,0,0.1,0,0.2,0c0.2,0,0.3,0,0.3,0.3c0,0.8,0.1,1.6,0.4,2.4C8,6.3,8.1,6.5,8.3,6.7c0.2,0.2,0.4,0,0.5,0c0.3,0,0.5-0.4,0.5-0.6
		C9.2,5.2,9.2,4.4,9,3.6c0-0.2,0-0.2,0.2-0.2c0.1,0,0.1,0,0.2,0c0.3-0.1,0.4,0.1,0.4,0.4c0,0.5,0.1,0.9,0.1,1.4c0,0.4,0.7,0.7,1,0.5
		c0.1,0,0.1-0.1,0.1-0.2c0.2-0.6,0.1-1.2,0.1-1.8c0-0.1-0.1-0.4,0.2-0.3c0.2,0,0.5-0.2,0.6,0.2c0.1,0.8,0.2,1.7-0.1,2.5
		c-0.1,0.2-0.1,0.4-0.3,0.5c-0.2,0.2-0.2,0.5-0.2,0.8c0,0.6,0.3,1,0.8,1.3c0.6,0.5,1.2,0.4,1.8,0.2c0.4-0.1,0.6-0.5,0.8-0.8
		c0.2-0.4,0.3-0.9,0.2-1.4c0-0.2-0.1-0.3-0.2-0.4c-0.2-0.2-0.5-0.3-0.6-0.6c-0.2-0.4-0.4-0.8-0.2-1.2c0.1-0.3,0.2-0.7,0.2-1
		c0-0.1,0.1-0.2,0.2-0.2c0.5,0,0.5,0,0.5,0.5c-0.1,0.4-0.1,0.9,0,1.3c0.1,0.5,0.8,0.9,1.3,0.7c0.2-0.1,0.4-0.4,0.4-0.7
		c0-0.5,0-1,0-1.5c0-0.2,0-0.3,0.2-0.3c0.2,0,0.5-0.2,0.5,0.2c0,0.5,0.1,1.1,0.2,1.6c0.1,0.3,0.3,0.5,0.5,0.5c0.2,0,0.6-0.1,0.7-0.2
		c0.1-0.3,0.2-0.6,0.1-1c-0.1-0.3-0.2-0.7-0.3-1c0-0.1,0-0.2,0.1-0.2c0.5,0,0.5,0,0.7,0.4c0.1,0.4,0.3,0.9,0.4,1.3
		c0.1,0.4,0.5,0.7,0.9,0.5c0.2,0,0.2-0.1,0.2-0.3c0-0.6,0-1.2-0.2-1.7c-0.1-0.3,0-0.3,0.2-0.3c0.4,0,0.5,0.1,0.5,0.4
		c0.2,0.8,0.2,1.6,0.2,2.4c0,0.5-0.3,0.9-0.6,1.3c-0.3,0.3-0.6,0.6-1,0.8c-0.3,0.2-0.7,0.2-1.1,0.3c-0.7,0.2-1.5,0.2-2.3,0.4
		c-0.5,0.1-1.1,0.3-1.3,1c-0.1,0.3,0.1,0.5,0.1,0.7c0,0.3,0.3,0.3,0.5,0.4c0.5,0.3,1,0.3,1.6,0.3c0.4,0,0.8,0.1,1.2,0.1
		c0.5,0,0.7,0.3,0.8,0.8c0.1,0.5,0,0.9-0.3,1.1c-0.1,0.1-0.2,0.1-0.3,0.1c-0.4,0-0.8,0.1-1.1,0.1c-0.3,0-0.4,0.2-0.4,0.4
		c0,0.3,0.2,0.5,0.4,0.5c0.4,0,0.7,0.1,1.1,0.1c-0.2,0.5-0.2,0.5-0.7,0.6c-0.6,0-1.2,0.1-1.7,0.1c-0.2,0-0.2,0.1-0.2,0.3
		c0,0.6,0,1.2-0.1,1.9c0,0.2,0,0.4,0,0.7c-0.9-0.9-1.7-1.7-2.5-2.6c-0.2,0.5-0.6,0.9-0.5,1.4c0.1,0.6,0.3,1.1,0.7,1.4
		c0.8,0.8,1.8,1.5,2.7,2.2c0.2,0.1,0.3,0.3,0.3,0.5c0.5,1.5,0.7,3.1,0.8,4.7c0,0.7-0.1,1.5-0.1,2.2c0,0.3,0,0.5,0.1,0.8
		c2.3,4.5,4.6,9.1,6.6,13.7c0.1,0.1,0.1,0.2,0.1,0.4c-0.8-1-1.7-1.9-2.2-3.1c-0.5-1.2-1.1-2.4-1.6-3.6c-0.2-0.4-0.5-0.8-0.8-1.1
		c-1.4-1.9-2.7-3.7-4.1-5.6c-0.7,0.6-1.3,1.2-2,1.8c-1.3,1.2-2.7,2.5-4,3.7c-0.1,0.1-0.2,0.3-0.3,0.5c-0.4,1-0.6,2-0.6,3
		c0,1.8,0,3.5-0.1,5.3c0,0.2-0.1,0.4-0.2,0.6c-1.4,1.5-2.7,2.9-4.1,4.4c-0.2,0.2-0.2,0.3-0.2,0.5c0,2.9,0,5.8,0,8.7
		c0,0.1,0,0.2,0,0.4c-0.4,0.1-0.5-0.2-0.5-0.5c0-0.4,0-0.8-0.1-1.2c0-0.1,0-0.2-0.1-0.2c-0.1-0.1-0.2-0.3-0.3-0.4c0,0,0,0-0.1,0
		c0-2.4-0.1-4.9-0.1-7.3c0-0.1,0.1-0.3-0.1-0.4c0-0.3,0-0.5,0-0.8c0.1,0,0.2-0.1,0.3-0.2c0.3-0.3,0.6-0.6,1-0.9
		c0.1-0.1,0.2-0.2,0.2-0.4c0-1.2,0-2.3,0-3.5C4,42.3,4,42.2,4,42c0-0.7,0-1.3,0-2c0-0.4,0-0.9,0-1.3c-0.1,0.1-0.1,0.2-0.1,0.3
		c0,0.6,0,1.3,0,1.9c0,0.1,0,0.2-0.1,0.3c0-0.8,0-1.6,0-2.5c0-0.2,0.1-0.3,0-0.5C3.6,38.1,3.3,37.9,3,38c-0.1,0-0.3,0-0.3-0.2
		c0-1.6,0.1-3.2,0.5-4.7c0.5-1.8,1.2-3.7,2-5.4c0.7-1.3,1-2.6,0.8-4.1c-0.1-0.6-0.1-1-0.8-1.2c-0.2,0-0.2-0.1-0.1-0.3
		c0.1-0.3,0.3-0.5,0.4-0.8c0.2-0.5,0.1-0.7-0.4-0.7c-0.1,0-0.1,0-0.2,0c0.2-0.4,0.4-0.8,0.5-1.1c0.1-0.2,0.1-0.4-0.2-0.5
		c-0.1,0-0.2-0.1-0.1-0.2c0.3-0.5,0.6-1.1,0.9-1.6c0.8-1.2,1.6-2.4,2.6-3.4c0.4-0.4,0.6-0.8,0.2-1.4c-0.2-0.3-0.4-0.6-0.6-0.9
		c0.8,0,1.5,0,2.3,0c0.4,0,0.9-0.6,0.8-1c0-0.3-0.1-0.5-0.1-0.8c0-0.2-0.4-0.6-0.7-0.7C8.9,8.8,7.2,8.6,5.5,8.6
		c-0.8,0-1.6-0.3-2.1-0.9C3,7.3,2.6,6.8,2.6,6.2c0-0.4,0-0.9-0.2-1.3C2.4,4.4,2.4,3.9,2.4,3.4z M2.7,53.3
		C2.7,53.3,2.7,53.3,2.7,53.3c0,0.8,0,1.6,0,2.4c0,0,0,0,0,0C2.7,54.9,2.7,54.1,2.7,53.3z"/>
	<path class="st0" d="M74.3,3c0.3,0.4,0.6,0.8,1.1,1.1c0.1,0.1,0.2,0.1,0.3,0c0.3-0.3,0.6-0.5,0.8-0.8c0.1-0.2,0.2-0.2,0.4,0
		c0.3,0.3,0.3,0.3,0,0.7c-0.3,0.3-0.5,0.6-0.8,1c-0.2,0.4-0.1,0.7,0.3,0.8c0.3,0.1,0.5,0,0.8-0.2c0.5-0.5,1.2-0.8,1.7-1.3
		c0.4,0.5,0.4,0.5-0.1,0.9c-0.6,0.5-1.2,0.9-1.8,1.2c-0.4,0.2-0.5,0.8-0.3,1.2c0.1,0.1,0.2,0.1,0.2,0.1c0.6,0,1.2-0.2,1.8-0.5
		c0.3-0.1,0.7-0.3,1-0.4c0.2-0.1,0.3-0.1,0.4,0.1c0.1,0.2,0.2,0.3,0,0.4c-0.4,0.3-0.8,0.5-1.3,0.6C78,8,77.3,8.2,76.6,8.5
		c-0.2,0.1-0.5,0.2-0.4,0.5c0.1,0.3,0.3,0.3,0.6,0.3c0.9,0,1.9,0,2.8,0c0.2,0,0.3,0,0.3,0.3c0,0.6,0.1,0.5-0.5,0.5
		c-1.3,0-2.6,0-3.9,0c-0.7,0-1.2,0.4-1.7,0.8c-0.1,0.1-0.2,0.3-0.1,0.4c0.1,0.2,0.2,0.5,0.5,0.5c0.3,0,0.6,0,0.9,0
		c0.3,0,0.7,0,1.1,0c-0.3,0.5-0.6,0.8-0.8,1.2c-0.1,0.1-0.1,0.2-0.1,0.4c0.1,2.4-0.5,4.7-1.2,7c-0.3,0.9-0.6,1.8-0.7,2.7
		c-0.1,0.9-0.1,1.7,0.2,2.6c0.6,1.6,1.7,2.8,2.7,4.2c1.3,1.8,2.4,3.7,3.4,5.6c0.2,0.5,0.1,1,0.2,1.6c0,0.2,0,0.3,0,0.5
		c-0.1,0.7-0.1,0.7-0.7,0.7c-0.1,0-0.2,0.1-0.3,0.2c-0.5,0.6-0.4,1.3-0.5,1.9c0,1.9,0,3.7,0.1,5.6c0,0.1,0.1,0.2,0.1,0.3
		c0.8,0.8,1,1.7,0.9,2.8c0,2.3,0.1,4.6,0.1,6.9c0,0.2-0.1,0.3-0.3,0.3c-0.2,0.1-0.3,0.2-0.3,0.4c0,0.4,0,0.9-0.1,1.3
		c0,0.1,0,0.3-0.2,0.3c-0.2,0-0.2-0.2-0.2-0.3c0-2.6,0-5.2,0.1-7.8c0-0.8-0.2-1.4-0.7-1.9c-1.3-1.3-2.5-2.7-3.7-4.1
		c-0.1-0.1-0.1-0.3-0.1-0.4c0-2.1,0-4.2,0-6.2c0-1.1-0.4-2.1-1.2-2.8c-1.7-1.5-3.2-3.1-4.8-4.6c-0.1-0.1-0.2-0.2-0.2-0.2
		c-0.5-0.5-0.7-0.4-1.1,0.1c-0.8,1.2-1.6,2.3-2.3,3.5c-0.5,0.8-1.1,1.4-1.7,2c-0.1,0.1-0.2,0.3-0.3,0.5c-0.5,1.4-1.1,2.7-1.7,4
		c-0.5,1-1.1,1.9-1.6,2.8c-0.1,0.2-0.3,0.2-0.5,0.2c0.6-1.2,1.1-2.4,1.6-3.6c1.5-3.6,3.5-7,5.2-10.5c0.1-0.2,0.2-0.4,0.2-0.7
		c0-1.6,0-3.2,0.1-4.8c0-0.4,0.2-0.8,0.3-1.2c0-0.1,0.1-0.1,0.1-0.1c0.4,0,0.3-0.2,0.3-0.5c0-0.6,0-0.7,0.6-0.8
		c0.3-0.1,0.4-0.3,0.3-0.5c0-0.1,0-0.2,0-0.3c0-0.2,0-0.3,0.2-0.3c0.2,0,0.3-0.1,0.5-0.1c0.4,0,0.5-0.2,0.4-0.5c0-0.1,0-0.2,0.1-0.2
		c0.9-0.1,1.5-0.6,2.2-1.1c0.9-0.7,1.1-2.2,0.3-3c-0.1-0.2-0.4-0.1-0.5-0.1c-0.2,0-0.5,0.1-0.7,0.2c-0.3,0.3-0.6,0.3-1,0.3
		c-0.5,0-1,0-1.5,0c-0.2,0-0.3-0.1-0.3-0.2c0-0.2,0-0.4,0-0.6c0-0.1,0.1,0,0.2,0c0.2,0,0.3,0,0.5,0c0.2,0,0.4-0.1,0.4-0.3
		c0.1-0.3-0.1-0.4-0.3-0.5c-0.3-0.1-0.6-0.1-0.8-0.2c-0.3-0.1-0.6-0.1-0.8-0.4c-0.3-0.8-0.2-0.8,0.6-0.9c0.8-0.1,1.6,0,2.3,0.1
		c0.7,0,1-0.6,0.8-1.1c-0.1-0.1-0.1-0.2-0.3-0.2c-0.2,0-0.4,0-0.5,0c-0.9,0-1.1-0.2-1.3-1.1c-0.1-0.3-0.2-0.5-0.1-0.8
		c0.1-0.2,0.2-0.3,0.4-0.3c0.2,0,0.1,0.2,0.2,0.3c0.1,0.2,0.1,0.4,0.2,0.5c0.1,0.4,0.4,0.5,0.7,0.6c0.1,0,0.1,0,0.2-0.1
		c0.1-0.3,0.1-0.5,0-0.8c-0.1-0.3,0-0.5,0.3-0.6c0.1-0.1,0.2,0,0.2,0.1c0,0.2,0,0.3,0,0.5c0.2,0.8,1.2,1.1,1.8,0.6
		C72,9.6,72,9,71.8,8.7c-0.4-0.7-1.2-1-1.9-1.3c-1-0.4-2-0.8-3-1.2c-0.5-0.2-0.9-0.5-1-1.1c-0.1-0.3-0.2-0.7-0.4-1
		c-0.1-0.1-0.1-0.3-0.1-0.4c0-0.2,0.1-0.5,0.4-0.5c0.3,0,0.4,0.2,0.5,0.4c0.1,0.3,0.1,0.6,0.2,0.9c0,0.1,0.1,0.2,0.1,0.4
		c0.2,0.4,0.7,0.7,1.2,0.5c0.2-0.1,0.3-0.4,0.3-0.6c0-0.4,0-0.8,0.1-1.2c0-0.3,0.3-0.4,0.4-0.4c0.1,0,0.3,0.2,0.3,0.4
		c0,0.4,0.1,0.9-0.1,1.3c-0.1,0.3,0,0.7,0.1,1c0,0.2,0.2,0.2,0.3,0.2C69.5,6.2,69.9,6,70,5.8c0.3-0.5,0.6-1.1,0.9-1.6
		c0-0.1,0.1-0.2,0.2-0.2c0.1,0,0.3,0.1,0.3,0.2c0,0.2,0.1,0.4-0.1,0.5c-0.3,0.4-0.5,0.9-0.7,1.3c-0.2,0.4,0.1,0.6,0.3,0.7
		C71,7,71.3,6.9,71.5,6.8c0.3-0.2,0.7-0.4,0.9-0.8c0.2-0.2,0.3-0.4,0.6-0.5c0.2-0.1,0.4-0.1,0.5,0c0.1,0.1,0.1,0.3-0.1,0.5
		c-0.4,0.3-0.7,0.7-1,1.1c-0.2,0.3-0.2,0.6,0,0.9C72.4,8,72.5,8,72.6,8c0.5-0.1,0.9-0.2,1.2-0.5c0.1-0.1,0.3-0.2,0.5-0.2
		c0.2,0,0.3,0,0.3,0.2c0,0.2,0.1,0.3-0.1,0.4c-0.4,0.4-1,0.5-1.3,1c-0.2,0.2-0.3,0.4-0.4,0.7c0,0.4,0.2,0.6,0.6,0.6
		c0.6,0,1-0.4,1.5-0.8C75,9.3,75.1,9.1,75.2,9c0.4-0.4,0.5-1,0.5-1.6c0.1-0.5,0.1-1.1-0.2-1.6c-0.2-0.4-0.5-0.7-0.7-1
		c-0.3-0.3-0.6-0.6-0.9-0.9c-0.3-0.3-0.3-0.6,0.1-0.8c0,0,0,0,0.1-0.1C74.2,3,74.2,3,74.3,3z"/>
	<path class="st0" d="M41,21.6c5.3,0,10.6,0,15.9,0c0.3,0,0.4,0,0.4,0.4c0,8.5,0,16.9,0,25.4c-0.3,1.9-0.7,3.8-1.7,5.6
		c-0.6,1-1.3,1.9-2.3,2.5c-0.8,0.6-1.6,1.1-2.4,1.7c-3.2,2-6.4,4-9.6,6c-0.2,0.1-0.3,0.1-0.5,0c-3.9-2.4-7.9-4.8-11.7-7.4
		c-1.7-1.2-2.8-2.7-3.4-4.6c-0.4-1.1-0.6-2.3-0.8-3.4c0-0.1,0-0.2,0-0.3c0-8.4,0-16.9,0-25.3c0-0.3,0.1-0.4,0.4-0.4
		C30.5,21.6,35.7,21.6,41,21.6z M25,25.9c0,0.9,0,1.9,0,2.8c0,1.2,0,2.5,0,3.7c0,0.3,0.1,0.4,0.4,0.4c4.6,0,9.3,0,13.9,0
		c0.1,0,0.2,0,0.3,0c0.9,0,1.9,0,2.8,0c0.1,0,0.1,0,0.2,0c4.7,0,9.4,0,14.1,0c0,0,0.1,0,0.1,0c0.1,0,0.2-0.1,0.2-0.2
		c0-1.3,0-2.6,0-3.9c0.1-0.9,0-1.9,0-2.8c0-1.2,0-2.5,0-3.7c0-0.3-0.1-0.4-0.4-0.4c-5.8,0-11.7,0-17.5,0c-4.5,0-9.1,0-13.6,0
		c-0.1,0-0.2,0-0.3,0c-0.2,0-0.2,0.1-0.2,0.2C25,23.3,25,24.6,25,25.9z M50.7,44.6c0-1,0-2,0-3c-0.6,0.1-0.6,0.1-0.9-0.5
		c-0.2-0.3-0.3-0.6-0.5-0.9c-0.3,0.5-0.5,0.9-0.7,1.3c-0.1,0.1-0.1,0.2-0.3,0.2c-0.4-0.1-0.4-0.1-0.4,0.3c0,0.8,0,1.7,0,2.5
		c-0.3-0.2-0.6-0.3-0.8-0.5c-0.2-0.1-0.3-0.1-0.4,0.1c-0.1,0.3-0.3,0.3-0.5,0.3c-0.4,0-0.7,0-1.1,0c0.3,0.4,0.5,0.8,0.7,1.1
		c0.1,0.1,0.1,0.3,0,0.4c-0.3,0.2-0.1,0.3,0.1,0.5c0.5,0.3,1,0.7,1.5,1.1c-2,1.1-3.9,2.3-5.8,3.4c0-2.4,0-4.7,0-7.1
		c0.5,0.4,1.1,0.7,1.5,1.1c0.2,0.2,0.3,0.2,0.4-0.1c0-0.2,0.2-0.3,0.4-0.3c0.3,0,0.6-0.1,0.9-0.1c0.2,0,0.2-0.1,0.1-0.3
		c-0.1-0.3-0.2-0.7-0.3-1c0-0.1-0.1-0.2,0-0.3c0.2-0.5,0.2-0.5-0.3-0.7c-0.1,0-0.2-0.1-0.3-0.1c0.7-0.4,1.4-0.8,2.1-1.2
		c0.2-0.1,0.3-0.2,0-0.4c-0.2-0.1-0.2-0.3-0.1-0.5c0.3-0.3,0.5-0.7,0.7-1.1c-0.4,0-0.8-0.1-1.2-0.1c-0.2,0-0.4-0.1-0.5-0.4
		c0-0.1-0.1-0.1-0.1-0.2c-0.9,0.5-1.8,0.9-2.7,1.4c0-1,0-1.9,0-2.8c-0.1,0-0.1,0-0.2,0c-0.2,0.1-0.4,0-0.5-0.2
		c-0.2-0.4-0.4-0.8-0.6-1.3c-0.2,0.5-0.5,0.9-0.7,1.4c-0.1,0.2-0.2,0.3-0.4,0.2c-0.3-0.1-0.3,0-0.3,0.2c0,0.2,0,0.4,0,0.6
		c0,0.6,0,1.2,0,1.8c-0.2,0-0.2-0.1-0.3-0.1c-0.7-0.4-1.4-0.7-2.2-1.1c-0.2-0.1-0.3-0.1-0.3,0.1c0,0.3-0.2,0.4-0.5,0.4
		c-0.4,0-0.8,0-1.2,0.2c0.3,0.4,0.5,0.8,0.8,1.1c0.1,0.1,0.1,0.2,0,0.3c-0.3,0.3-0.3,0.3,0.1,0.5c0,0,0.1,0.1,0.1,0.1
		c0.6,0.3,1.2,0.7,1.9,1.1c-0.2,0.1-0.4,0.2-0.5,0.2c-0.2,0.1-0.3,0.2-0.2,0.4c0.1,0.2,0.1,0.4,0,0.6c-0.1,0.4-0.2,0.7-0.4,1.1
		c0.3,0,0.5,0.1,0.7,0.1c0.4,0,0.8,0.1,0.9,0.6c0,0,0,0,0.1,0.1c0.6-0.4,1.2-0.8,1.8-1.3c0,2.4,0,4.7,0,7c-1.9-1.1-3.8-2.2-5.8-3.4
		c0.6-0.4,1.1-0.8,1.6-1.1c0.2-0.1,0.3-0.2,0.1-0.4c-0.2-0.1-0.2-0.3,0-0.5c0.2-0.3,0.4-0.7,0.7-1.1c-0.4,0-0.8,0-1.1,0
		c-0.3,0-0.5-0.1-0.5-0.3C35.3,44,35.1,44,35,44.1c-0.3,0.2-0.5,0.3-0.8,0.5c0-0.9,0-1.8,0-2.6c0-0.3-0.1-0.4-0.3-0.3
		c-0.2,0.1-0.3,0-0.4-0.2c-0.2-0.4-0.4-0.8-0.7-1.2c-0.2,0.4-0.5,0.8-0.6,1.2c-0.1,0.2-0.2,0.3-0.4,0.2c-0.2-0.1-0.3,0-0.3,0.2
		c0,0.8,0,1.6,0,2.3c0,0.4,0,0.4-0.4,0.2c-0.6-0.3-1.2-0.6-1.8-1c-0.2-0.1-0.4-0.2-0.6-0.3c0,0.1,0,0.1,0,0.2
		c0.1,0.3-0.1,0.4-0.4,0.4c-0.4,0-0.7,0-1.1,0.1c0.2,0.4,0.4,0.8,0.7,1.2c0.1,0.1,0.1,0.3,0,0.4c-0.2,0.1-0.2,0.3,0.1,0.4
		c0.1,0,0.2,0.1,0.3,0.2c0.6,0.3,1.2,0.7,1.8,1c-0.7,0.4-1.3,0.8-2,1.2c-0.2,0.1-0.3,0.2-0.1,0.4c0.1,0.1,0.1,0.3,0,0.5
		c-0.2,0.4-0.4,0.8-0.6,1.1c-0.1,0.2-0.1,0.2,0.1,0.2c0.4,0,0.8,0,1.3,0c0.1,0,0.3,0,0.3,0.1c0.1,0.5,0.3,0.3,0.6,0.1
		c0.2-0.1,0.4-0.2,0.6-0.4c0.5-0.3,1-0.6,1.5-0.9c0,0.3,0,0.6,0,0.9c0,0.1,0,0.2,0.2,0.2c0.3-0.1,0.4,0.1,0.5,0.2
		c0.2,0.4,0.5,0.7,0.7,1.1c0.3-0.4,0.5-0.8,0.8-1.2c0.1-0.1,0.1-0.2,0.2-0.2c0.5,0.2,0.4-0.2,0.4-0.4c0-0.5,0-1.1,0-1.7
		c0.1,0.1,0.2,0.1,0.3,0.1c1.9,1.1,3.8,2.2,5.7,3.3c0.3,0.2,0.4,0.4,0.4,0.7c0,1.8,0,3.7,0,5.5c0,0.6,0,0.6,0.6,0.6
		c0.3,0,0.4-0.1,0.4-0.4c0-2,0-3.9,0-5.9c0-0.2,0.1-0.4,0.3-0.5c1.6-0.9,3.1-1.8,4.6-2.6c0.5-0.3,1-0.6,1.5-0.9c0,0.7,0,1.3,0,1.9
		c0,0.2,0,0.3,0.2,0.2c0.2-0.1,0.3,0,0.4,0.2c0.2,0.3,0.4,0.6,0.6,1c0.1,0.2,0.2,0.1,0.3,0c0.2-0.3,0.4-0.6,0.6-1
		c0.1-0.1,0.2-0.3,0.4-0.2c0.2,0.1,0.2,0,0.2-0.2c0-0.3,0-0.6,0-0.9c0.9,0.5,1.7,1,2.6,1.5c0-0.6,0.4-0.5,0.8-0.5c0.4,0,0.7,0,1.1,0
		c-0.3-0.5-0.5-1-0.7-1.4c-0.1-0.1-0.1-0.3,0-0.4c0.2-0.2,0.1-0.3-0.1-0.4c-0.7-0.4-1.3-0.8-2-1.2c0.1,0,0.1-0.1,0.2-0.1
		c0.6-0.4,1.2-0.7,1.8-1.1c0.2-0.1,0.3-0.2,0.1-0.4c-0.2-0.1-0.1-0.3,0-0.4c0.2-0.3,0.3-0.6,0.5-0.9c0.1-0.2,0.1-0.2-0.2-0.2
		c-0.3,0-0.7-0.1-1-0.1c-0.2,0-0.3-0.1-0.3-0.3c0-0.3-0.1-0.3-0.3-0.2C52.4,43.7,51.6,44.2,50.7,44.6z"/>
	<path class="st0" d="M35.3,15.2c0.2-0.3,0.4-0.5,0.6-0.7c0.7-0.7,1.1-1.7,1.2-2.7c0.1-0.6-0.1-1-0.5-1.4c-1.8-1.8-3.7-3.5-5.5-5.3
		c0,0-0.1-0.1-0.1-0.1c-0.2-0.2-0.3-0.5-0.2-0.7c0-0.2,0.3-0.2,0.5-0.2c0.2,0,0.4,0,0.6,0C32.6,4.2,33.3,4,34,3.7
		c0.2-0.1,0.5-0.1,0.7,0c0.7,0.4,1.5,0.3,2.2,0.3c1,0,2,0.2,3,0.6c0.4,0.2,0.8,0.2,1.3,0.2c0.2,0,0.3,0,0.5,0c0.5,0,0.9-0.1,1.3-0.3
		c0.2-0.1,0.5-0.2,0.7-0.2c0.3,0,0.6,0,0.8,0c1.1-0.1,1.9,0.3,2.8,0.9c0.8,0.5,1.4,1.2,1.9,1.9c0.2,0.3,0.2,0.6,0.4,0.9
		c0.5,0.9,0.5,1.9,0.6,3c0,0.8,0.2,1.6-0.1,2.3c-0.2,0.7-0.5,1.3-0.9,1.9c0,0.1-0.1,0.1-0.2,0.1c-0.7,0-1.4,0-2.1,0
		c0.4-0.4,0.7-0.8,1-1.1c0.3-0.4,0.3-0.9,0.4-1.4c0,0-0.1-0.1-0.1-0.1c-0.5-0.8-1.3-1.3-2.1-1.8c-0.5-0.3-1-0.4-1.6-0.4
		c-1.5,0.1-2.9,0.2-4.4,0.2c-0.8,0-0.8,0-0.9,0.8c-0.1,0.6-0.2,1.2-0.2,1.8c0,0.3-0.1,0.6-0.3,0.8c0,0-0.1,0.1-0.1,0.1
		c-0.3,0.4-0.5,0.9-0.9,1c-0.4,0.2-0.9,0.1-1.4,0.1C36.1,15.2,35.8,15.2,35.3,15.2z"/>
	<path class="st0" d="M73.5,38.6c0,0.1,0,0.2,0,0.2c0.1,0.7-0.2,1.3-0.6,1.9c-0.9,1.3-1.8,2.6-2.7,3.8c-0.3,0.4-0.4,0.8-0.4,1.3
		c0,0.6,0,1.2,0.1,1.8c0,0.1,0,0.3,0.2,0.3c0.3,0,0.3,0.2,0.2,0.4c-0.1,0.2-0.2,0.5-0.3,0.7c-1.2,2.3-2.5,4.7-3.7,7
		c-0.1,0.3-0.4,0.4-0.6,0.6c-0.3,0.5-0.6,1-0.9,1.5c-0.1,0.2-0.3,0.3-0.5,0.1c-0.3-0.1,0-0.3,0-0.4c1.3-2.5,2.6-4.9,3.9-7.4
		c0.3-0.5,0.3-1,0.2-1.5c-0.4-2.2-1-4.4-1.4-6.6c-0.1-0.4-0.1-0.9,0.2-1.3c1.2-1.7,2.3-3.4,3.5-5.1c0.2-0.3,0.4-0.6,0.7-0.9
		c0.5-0.7,1.1-0.4,1.5,0.2C73.4,36.4,73.6,37.5,73.5,38.6z"/>
	<path class="st0" d="M15.2,42c-0.1,0.6-0.2,1.1-0.4,1.7c-0.4,2-0.9,4.1-1.3,6.1c0,0.2,0,0.3,0.1,0.4c1.3,2.5,2.6,5,3.9,7.5
		c0,0.1,0.2,0.2,0,0.3c-0.2,0.1-0.3,0-0.4-0.1c-1.8-3.2-3.6-6.4-5.4-9.6c-0.1-0.2-0.1-0.3,0.1-0.4c0.3-0.2,0.3-0.4,0.3-0.7
		c0-0.8,0.1-1.6,0.1-2.4c0-0.2,0-0.4-0.2-0.5c-1.1-1.6-2.3-3.1-3.4-4.7c-0.1-0.1-0.2-0.2-0.1-0.4c0.1-1,0.1-2,0.4-2.9
		c0.2-0.8,0.7-1.3,1.3-1.8c0.1-0.1,0.2,0.1,0.2,0.2c0.8,1.3,1.7,2.5,2.5,3.8c0.5,0.8,1,1.5,1.5,2.2c0.2,0.3,0.4,0.7,0.5,1.1
		C15.2,41.9,15.2,42,15.2,42z"/>
	<path class="st0" d="M41.1,18.3c-3.1,0-6.1,0-9.2,0c-0.6,0-0.8-0.2-0.9-0.8c0-0.2,0-0.4,0-0.6c0.1-0.5,0.3-0.6,0.8-0.6
		c6.2,0,12.3,0,18.5,0c0.5,0,0.6,0.1,0.8,0.6c0.1,0.3,0.1,0.5,0,0.8c-0.1,0.5-0.3,0.7-0.8,0.7C47.2,18.3,44.2,18.3,41.1,18.3z
		 M47.6,18c-0.2-0.4-0.4-0.8-0.6-1.1c-0.1-0.2-0.2-0.2-0.4-0.2c-0.9,0-1.8,0-2.6,0c-0.1,0-0.2,0-0.3,0.1c0.2,0.4,0.4,0.7,0.6,1.1
		c0.1,0.1,0.1,0.2,0.3,0.2C45.6,18,46.6,18,47.6,18z M41.1,18c-0.2-0.4-0.5-0.8-0.7-1.2c-0.1-0.1-0.1-0.1-0.2-0.1
		c-0.9,0-1.9,0-2.8,0c-0.2,0-0.2,0-0.1,0.2c0.2,0.3,0.4,0.7,0.5,1c0.1,0.1,0.1,0.1,0.2,0.1C39,18,40.1,18,41.1,18z M34.8,18
		c-0.2-0.4-0.5-0.8-0.7-1.2c-0.1-0.2-0.2-0.2-0.4-0.2c-0.6,0-1.2,0-1.7,0c-0.4,0-0.5,0.2-0.5,0.6c0,0.5,0.2,0.7,0.5,0.7
		C32.9,18,33.8,18,34.8,18z"/>
	<path class="st0" d="M64.9,27.3c-1.1-1-2.1-1.9-3.2-2.8c-1.3-1.1-2.5-2.2-3.8-3.4c-0.1-0.1-0.2-0.1-0.4-0.2c-2.5,0-5-0.1-7.6-0.1
		c-0.4,0-0.3-0.2-0.3-0.4c0-0.3,0.1-0.3,0.3-0.3c2.8,0,5.6,0.1,8.3,0.1c0.2,0,0.3,0,0.4,0.1c2,1.5,3.9,2.9,5.9,4.4
		c0.1,0.1,0.2,0.2,0.2,0.3C64.8,25.8,64.9,26.5,64.9,27.3z"/>
	<path class="st0" d="M17.5,27c-0.1-0.8-0.1-1.5-0.1-2.2c0-0.1,0.1-0.2,0.2-0.3c2.1-1.5,4.2-3,6.3-4.5c0.1-0.1,0.2-0.1,0.3-0.1
		c2.7,0.1,5.4,0.1,8,0.1c0.3,0,0.2,0.2,0.2,0.4c0,0.2,0,0.3-0.3,0.3c-2.4,0-4.8,0-7.3,0c-0.2,0-0.4,0.1-0.6,0.2
		c-2.2,2-4.4,3.9-6.7,5.9C17.7,26.8,17.6,26.9,17.5,27z"/>
	<path class="st0" d="M43,15.2c-0.5,0-0.9,0-1.2,0c-0.2,0-0.3,0-0.1-0.2c0.3-0.3,0.6-0.7,1-0.9c0.5-0.3,0.9-0.7,1-1.4
		c0-0.4,0.1-0.8,0.1-1.2c0-0.3,0.3-0.5,0.5-0.5c0.2,0,0.5,0,0.7,0c0.6-0.1,1,0.3,1.4,0.7c0.1,0.1,0.1,0.2,0,0.3
		c-0.1,0.1-0.2,0.3-0.3,0.4c-0.3,0.3-0.6,0.7-0.7,1.2c0,0.1-0.1,0.2-0.2,0.3c-0.1,0.2-0.3,0.3-0.4,0.5C44.4,15,43.8,15.4,43,15.2z"
		/>
	<path class="st0" d="M32,12.7c0-0.5,0-1,0-1.5c0-0.2,0-0.3,0.2-0.4c0.7-0.5,1.4-1.1,2.1-1.6c0.2-0.1,0.3-0.1,0.4,0
		c0.4,0.4,0.8,0.7,1.2,1.1c0.1,0.1,0.2,0.1,0.2,0.2c0.2,0.4,0.2,0.5-0.2,0.6c-0.6,0.1-1.2,0.3-1.8,0.4c-0.2,0-0.3,0.1-0.3,0.3
		c0,0.6-0.1,1.2-0.2,1.8c0,0.2-0.1,0.2-0.3,0.2c-0.2,0-0.5-0.1-0.6-0.3c-0.2-0.2-0.4-0.4-0.6-0.6C32,13,31.9,12.9,32,12.7z"/>
	<path class="st0" d="M2.6,55.8C2.6,55.9,2.6,55.9,2.6,55.8C2.6,55.9,2.6,55.9,2.6,55.8z"/>
	<path class="st0" d="M3.8,42.4c0-0.3,0-0.7,0-1C4,41.3,3.9,41.1,3.9,41c0-0.6,0-1.3,0-1.9c0-0.1,0-0.2,0.1-0.3c0,0.4,0,0.9,0,1.3
		c0,0.7,0,1.3,0,2C4,42.2,4,42.3,3.8,42.4z"/>
	<path class="st0" d="M2.7,53.3c0,0.8,0,1.6,0,2.4c0,0,0,0,0,0C2.6,54.9,2.6,54.1,2.7,53.3C2.7,53.3,2.7,53.3,2.7,53.3z"/>
	<path class="st0" d="M42.4,32.8c-0.9,0-1.9,0-2.8,0c0-1.2,0-2.5,0-3.7c0-0.3-0.1-0.4-0.4-0.4c-4.7,0-9.4,0-14.2,0
		c0-0.9,0-1.9,0-2.8l0,0c4.8,0,9.6,0,14.3,0c0.1,0,0.2,0,0.3-0.1c0-1.2,0-2.5,0-3.7c0-0.1,0-0.3,0.2-0.3c0.9,0,1.8,0,2.6,0
		c0,1.3,0,2.7,0,4c0,0.1,0.2,0.1,0.2,0.1c4.8,0,9.6,0,14.3,0l0,0c0,0.9,0,1.9,0,2.8c-4.7,0-9.5,0-14.2,0c-0.3,0-0.4,0.1-0.4,0.3
		C42.4,30.3,42.4,31.6,42.4,32.8z"/>
	<path class="st0" d="M42.4,21.9c-0.9-0.1-1.8,0-2.6,0c-0.2,0-0.2,0.1-0.2,0.3c0,1.2,0,2.5,0,3.7c0,0,0,0,0,0c0-1.2,0-2.4,0-3.6
		c0-0.3-0.1-0.4-0.4-0.4c-2.7,0-5.4,0-8.1,0c-1.9,0-3.8,0-5.8,0c-0.2,0-0.3,0-0.3,0.3c0,1.2,0,2.5,0,3.7c0,0,0,0,0,0.1c0,0,0,0,0,0
		c0,0,0,0-0.1,0c0-1.3,0-2.6,0-3.9c0-0.2,0-0.3,0.2-0.2c0.1,0,0.2,0,0.3,0c4.5,0,9.1,0,13.6,0c5.8,0,11.7,0,17.5,0
		c0.4,0,0.4,0.1,0.4,0.4c0,1.2,0,2.5,0,3.7c0,0,0,0,0,0c0,0,0,0,0,0c0,0,0,0,0-0.1c0-1.2,0-2.5,0-3.7c0-0.2-0.1-0.3-0.3-0.3
		C51.9,21.9,47.2,21.9,42.4,21.9z"/>
	<path class="st0" d="M57,25.9C57,25.9,57,25.9,57,25.9c0,0.9,0.1,1.9,0,2.8c0,0,0,0,0,0l0,0C57,27.8,57,26.9,57,25.9z"/>
	<path class="st0" d="M25,25.9C25,25.9,25,25.9,25,25.9c0.1,0.9,0.1,1.9,0.1,2.8c0,0,0,0,0,0s0,0,0,0C25,27.8,25,26.9,25,25.9z"/>
	<path class="st0" d="M42.4,25.9c0.7,0,1.4,0,2.1,0c4.2,0,8.3,0,12.5,0c0,0,0,0,0,0.1c-4.8,0-9.6,0-14.3,0
		C42.6,26,42.5,26,42.4,25.9z"/>
	<path class="st0" d="M25,25.9C25,25.9,25,25.9,25,25.9c4.7-0.1,9.5-0.1,14.2-0.1c0.1,0,0.2,0,0.4,0c0,0,0,0,0,0
		c0,0.1-0.2,0.1-0.3,0.1C34.6,26,29.8,25.9,25,25.9z"/>
	<g>
		<path class="st0" d="M67.3,61.4c0.1-0.1-0.1-0.3,0.1-0.3c0.2,0,0.1,0.2,0.1,0.3c0,0.1,0.1,0.3-0.1,0.3
			C67.3,61.7,67.4,61.5,67.3,61.4z"/>
		<path class="st0" d="M72.4,61.5c0,0.3,0.1,0.6,0.1,0.9c0,0.1,0.1,0.2-0.1,0.2c-0.2,0-0.1-0.1-0.1-0.2
			C72.3,62.1,72.3,61.8,72.4,61.5C72.3,61.5,72.3,61.5,72.4,61.5z"/>
		<path class="st0" d="M63.7,61.5c0.1-0.1-0.1-0.4,0.1-0.4c0.2,0,0.1,0.3,0.2,0.4c0,0.1,0,0.1,0,0.2c0,0.1-0.1,0.2-0.2,0.2
			c-0.1,0-0.1-0.1-0.1-0.2C63.7,61.6,63.7,61.6,63.7,61.5z"/>
		<g>
			<path class="st0" d="M52.1,64.7c0-0.1,0.1-0.1,0.1-0.2c1.6-1.6,3.2-3.2,4.7-4.8c0.2-0.2,0.5-0.3,0.8-0.3c7.1,0,14.3,0,21.4,0
				c0.3,0,0.4,0.1,0.4,0.4c0,1.5,0,3,0,4.5c0,0.3-0.1,0.3-0.3,0.3c-8.9,0-17.9,0-26.8,0C52.3,64.7,52.2,64.8,52.1,64.7z M70.4,62
				C70.4,62,70.5,62,70.4,62c0,0.5,0.1,0.9,0,1.4c0,0.3,0.1,0.4,0.4,0.4c0.3,0,0.4,0,0.4-0.3c0-0.7,0-1.4,0-2c0-0.8,0-0.8-0.8-0.8
				c-0.2,0-0.3,0.1-0.3,0.3c0,0.3-0.1,0.6-0.1,0.9c-0.1-0.2-0.1-0.3-0.1-0.4c-0.1-0.8-0.1-0.8-0.9-0.8c-0.2,0-0.2,0-0.2,0.2
				c0,0.9,0,1.8,0,2.7c0,0.3,0.2,0.2,0.4,0.2c0.2,0,0.4,0.1,0.4-0.3c0-0.4,0-0.9,0-1.3c0.1,0.5,0.2,0.9,0.3,1.4
				c0,0.2,0.2,0.2,0.3,0.2c0.2,0,0.2-0.1,0.2-0.2C70.3,62.9,70.4,62.4,70.4,62z M74.6,61.7C74.6,61.7,74.6,61.7,74.6,61.7
				c-0.2-0.3-0.3-0.6-0.4-1c-0.1-0.3-0.4-0.1-0.6-0.2c-0.2,0-0.2,0.2-0.2,0.3c0,0.9,0,1.7,0,2.6c0,0.3,0.2,0.3,0.4,0.3
				c0.2,0,0.4,0,0.3-0.3c0-0.3,0-0.6,0-0.9c0.2,0.3,0.3,0.6,0.3,0.9c0.1,0.4,0.4,0.2,0.6,0.2c0.2,0,0.2-0.2,0.2-0.3
				c0-0.8,0-1.7,0-2.5c0-0.3-0.1-0.3-0.4-0.3c-0.3,0-0.4,0-0.3,0.3C74.7,61.1,74.6,61.4,74.6,61.7z M68,62.1
				c0.3-0.2,0.4-0.4,0.4-0.8c-0.1-0.4-0.2-0.6-0.6-0.6c-0.3,0-0.6,0-0.9,0c-0.3,0-0.3,0.1-0.3,0.3c0,0.8,0,1.5,0,2.3
				c0,0.6,0,0.6,0.6,0.5c0.2,0,0.3-0.1,0.3-0.3c0-0.3,0-0.6,0-0.9c0-0.1,0-0.2,0.1-0.2c0.1,0,0.1,0.1,0.1,0.2c0,0.3,0,0.6,0,0.9
				c0,0.3,0.1,0.4,0.4,0.4c0.3,0,0.5-0.1,0.4-0.4c0-0.2,0-0.4,0-0.6C68.3,62.4,68.3,62.2,68,62.1z M72.3,60.5c-0.1,0-0.3,0-0.4,0
				c-0.1,0-0.2,0-0.2,0.2c-0.1,0.9-0.2,1.8-0.3,2.7c0,0.1-0.1,0.2,0,0.2c0.2,0.1,0.5,0,0.7,0c0.2,0,0.1-0.2,0.1-0.3
				c0-0.1,0-0.3,0.2-0.2c0.2,0,0.1,0.2,0.1,0.3c0,0.3,0.1,0.4,0.4,0.3c0.1,0,0.2,0,0.2,0c0.2,0,0.3-0.1,0.2-0.3
				c-0.1-0.8-0.2-1.5-0.3-2.3C72.9,60.5,72.9,60.5,72.3,60.5z M60.8,62.1C60.8,62.1,60.8,62.1,60.8,62.1c0-0.3,0-0.6,0-0.8
				c0-0.1,0-0.3,0.2-0.3c0.1,0,0.1,0.1,0.1,0.2c0,0.1,0,0.3,0,0.4c0,0.1,0,0.2,0.1,0.2c0.6,0.2,0.8,0,0.7-0.6c0,0,0-0.1,0-0.1
				c-0.1-0.5-0.4-0.7-1-0.7c-0.5,0-0.9,0.3-0.9,0.8c0,0.6,0,1.1,0,1.7c0,0.4,0.2,0.6,0.5,0.7c0.4,0.1,0.8,0.1,1.2-0.2
				c0.1-0.1,0.3-0.9,0.2-1c-0.2-0.2-0.4,0-0.6-0.1c-0.2,0-0.2,0.1-0.2,0.2c0,0.1,0,0.2,0,0.4c0,0.1,0,0.2-0.1,0.2
				c-0.1,0-0.1-0.1-0.2-0.2C60.8,62.7,60.8,62.4,60.8,62.1z M58.1,61.5c0.4,0,0.5,0,0.4-0.4c-0.1-0.4-0.4-0.6-0.9-0.6
				c-0.6,0-0.9,0.3-0.9,0.9c0,0.4,0.1,0.7,0.5,0.9c0.1,0.1,0.3,0.2,0.4,0.3c0.2,0.1,0.2,0.3,0.2,0.5c0,0.1,0,0.2-0.1,0.2
				c-0.1,0-0.1-0.1-0.1-0.2c0-0.1,0-0.2,0-0.2c0-0.2-0.1-0.2-0.2-0.2c-0.1,0-0.2,0-0.3,0c-0.2,0-0.2,0.1-0.2,0.2
				c0,0.4,0,0.7,0.4,0.9c0.4,0.2,0.8,0.2,1.2-0.1c0.1-0.1,0.2-0.3,0.2-0.4c0.1-0.6-0.1-1-0.6-1.3c-0.1-0.1-0.2-0.1-0.3-0.2
				c-0.2-0.1-0.2-0.3-0.1-0.4c0-0.1,0.1-0.1,0.1-0.1c0.1,0,0.1,0.1,0.1,0.1C57.7,61.5,57.9,61.5,58.1,61.5z M63.5,60.5
				c-0.1,0-0.2,0-0.3,0c-0.3,0-0.3,0.1-0.3,0.3c0,0.8,0,1.7,0,2.5c0,0.2,0.1,0.3,0.3,0.3c0.1,0,0.2,0,0.2,0c0.2,0,0.3,0,0.3-0.3
				c0-0.2,0-0.5,0-0.7c0-0.2,0-0.2,0.2-0.2c0.6,0,0.7-0.2,0.7-0.7C64.7,60.7,64.5,60.5,63.5,60.5z M64.9,62.1c0,0.4,0,0.9,0,1.3
				c0,0.2,0.1,0.3,0.3,0.3c0.3,0,0.5,0,0.8,0c0.2,0,0.4,0,0.4-0.3c0-0.2,0-0.4-0.3-0.4c-0.3,0-0.3-0.1-0.3-0.3
				c0-0.2-0.1-0.4,0.2-0.4c0.2,0,0.3-0.1,0.3-0.3c0-0.2,0-0.4-0.3-0.3c-0.3,0-0.2-0.1-0.2-0.3c0-0.2,0-0.3,0.2-0.3
				c0.1,0,0.3,0.1,0.3-0.1c0.1-0.4,0-0.5-0.4-0.5c-0.2,0-0.5,0-0.7,0c-0.2,0-0.3,0.1-0.3,0.3C64.9,61.2,64.9,61.7,64.9,62.1z
				 M75.6,62.1c0,0.4,0,0.9,0,1.3c0,0.2,0.1,0.3,0.3,0.3c0.3,0,0.6,0,0.9,0c0.1,0,0.2,0,0.2-0.1c0-0.2,0-0.3,0-0.5
				c0-0.2-0.2-0.1-0.3-0.1c-0.3,0-0.3-0.1-0.3-0.3c0-0.2-0.1-0.4,0.2-0.4c0.2,0,0.3-0.1,0.3-0.3c0-0.2,0-0.4-0.3-0.3
				c-0.2,0-0.2-0.1-0.2-0.2c0-0.3,0-0.4,0.3-0.3c0.3,0,0.2-0.2,0.2-0.3c0-0.2,0-0.3-0.2-0.3c-0.3,0-0.6,0-0.9,0
				c-0.2,0-0.2,0.1-0.2,0.2C75.6,61.2,75.6,61.7,75.6,62.1z M77.6,62.4c0,0.3,0,0.7,0,1c0,0.2,0,0.3,0.3,0.3c0.1,0,0.2,0,0.3,0
				c0.2,0,0.3-0.1,0.3-0.3c0-0.6,0-1.3,0-1.9c0-0.2,0-0.3,0.3-0.3c0.3,0,0.2-0.2,0.2-0.4c0-0.2,0-0.3-0.2-0.3c-0.4,0-0.9,0-1.3,0
				c-0.2,0-0.3,0.1-0.3,0.3c0,0.2-0.1,0.4,0.2,0.4c0.2,0,0.3,0.1,0.3,0.3C77.6,61.8,77.6,62.1,77.6,62.4z M59.7,62.1
				c0-0.5,0-0.9,0-1.4c0-0.2-0.1-0.3-0.2-0.2c-0.1,0-0.2,0-0.3,0c-0.2,0-0.3,0-0.3,0.3c0,0.8,0,1.7,0,2.5c0,0.2,0.1,0.3,0.3,0.3
				c0.1,0,0.1,0,0.2,0c0.2,0,0.3,0,0.3-0.3C59.7,63,59.7,62.5,59.7,62.1z"/>
			<g>
				<path class="st0" d="M52,71.6c0-2,0-3.9,0-5.8c0-0.2,0.1-0.3,0.3-0.3c1.6,0,3.1,0,4.7,0c0.2,0,0.3,0.1,0.2,0.2c0,0,0,0,0,0.1
					c0,0.5,0.1,1,0,1.4c-0.2,0.4-0.7,0.7-1.1,1c-1.3,1.1-2.5,2.1-3.8,3.2C52.3,71.5,52.2,71.6,52,71.6z"/>
				<g>
					<g>
						<g>
							<path class="st0" d="M41,72.4c-3.3,0-6.6,0-9.8,0c-0.3,0-0.4,0-0.4-0.4c0-1.5,0-3,0-4.5c0-0.2,0.1-0.3,0.3-0.3
								c6.6,0,13.3,0,19.9,0c0.3,0,0.3,0.1,0.3,0.3c0,1.5,0,3,0,4.5c0,0.3-0.1,0.3-0.3,0.3C47.6,72.4,44.3,72.4,41,72.4z M38.3,69.9
								c0,0.5,0,0.9,0,1.4c0,0.2,0,0.2,0.2,0.2c0.3,0,0.7,0,1,0c0.4,0,0.6-0.2,0.6-0.6c0-0.6,0-1.2,0-1.8c0-0.4-0.2-0.6-0.7-0.7
								c-0.3,0-0.7,0-1,0c-0.2,0-0.2,0.1-0.2,0.2C38.3,69,38.3,69.4,38.3,69.9z M46.1,69.2c0.1-0.1,0.3,0.2,0.4-0.1
								c0-0.4-0.1-0.7-0.5-0.8c-0.5-0.2-1,0-1.2,0.3c0,0.1,0,0.1-0.1,0.2c-0.1,0.5,0,0.9,0.5,1.2c0.2,0.1,0.4,0.2,0.5,0.5
								c0,0.1,0.1,0.3,0,0.4c0,0.1-0.1,0.1-0.1,0c-0.1-0.1-0.1-0.2-0.1-0.4c0-0.2-0.1-0.3-0.3-0.3c-0.1,0-0.2,0-0.2,0
								c-0.2,0-0.2,0-0.2,0.2c0,0.8,0.5,1.1,1.3,0.9c0.3-0.1,0.5-0.2,0.6-0.5c0.2-0.6,0-1-0.5-1.4c-0.1-0.1-0.3-0.2-0.4-0.3
								c-0.1-0.1-0.2-0.2-0.2-0.4c0-0.1,0-0.2,0.1-0.2c0.1,0,0.1,0.1,0.1,0.2C45.7,69.3,45.9,69.3,46.1,69.2z M40.5,69.9
								c0,0.5,0,0.9,0,1.4c0,0.1,0,0.2,0.2,0.2c0.3,0,0.7,0,1,0c0.1,0,0.1,0,0.2-0.1c0.1-0.3,0-0.6-0.3-0.5c-0.3,0-0.3-0.1-0.3-0.3
								c0-0.2-0.1-0.4,0.3-0.4c0.3,0,0.3-0.1,0.3-0.3c0-0.2,0-0.3-0.3-0.3c-0.2,0-0.2,0-0.2-0.2c0-0.3,0-0.4,0.4-0.4
								c0.3,0,0.2-0.2,0.2-0.3c0-0.1,0.1-0.3-0.2-0.3c-0.3,0-0.6,0-0.9,0c-0.2,0-0.2,0.1-0.2,0.2C40.5,69,40.5,69.4,40.5,69.9z
								 M35.6,69.9c0,0.3,0,0.7,0,1c0,0.6,0,0.6,0.6,0.6c0.2,0,0.3-0.1,0.2-0.2c0-0.3,0-0.5,0-0.8c0-0.2,0-0.3,0.3-0.3
								c0.3,0,0.2-0.2,0.2-0.3c0-0.2,0-0.3-0.3-0.3c-0.3,0.1-0.2-0.2-0.3-0.3c0-0.2,0-0.3,0.3-0.3c0.1,0,0.3,0.1,0.3-0.1
								c0.1-0.4,0-0.5-0.4-0.5c-0.2,0-0.4,0-0.6,0c-0.3,0-0.4,0.1-0.4,0.4C35.6,69.1,35.6,69.5,35.6,69.9z M42.9,69.6
								c0-0.2,0-0.5,0-0.7c0-0.6,0-0.6-0.6-0.6c-0.2,0-0.3,0-0.3,0.2c0,0.9,0,1.8,0,2.6c0,0.2,0.1,0.3,0.3,0.3c0.3,0,0.5,0,0.8,0
								c0.2,0,0.3,0,0.3-0.3c0-0.2,0.1-0.4-0.2-0.4c-0.2,0-0.3-0.1-0.2-0.3C42.9,70.2,42.9,69.9,42.9,69.6z M38,69.9
								c0-0.4,0-0.9,0-1.3c0-0.3-0.1-0.4-0.3-0.3c0,0-0.1,0-0.1,0c-0.3,0-0.4,0-0.4,0.3c0,0.8,0,1.6,0,2.4c0,0.3,0.1,0.4,0.4,0.4
								c0,0,0.1,0,0.1,0c0.2,0,0.3,0,0.3-0.3C37.9,70.7,38,70.3,38,69.9z M44.4,69.9c0-0.5,0-0.9,0-1.4c0-0.2-0.1-0.3-0.3-0.3
								c-0.1,0-0.2,0-0.2,0c-0.2,0-0.3,0-0.3,0.3c0,0.8,0,1.5,0,2.3c0,0.6,0,0.6,0.6,0.6c0.2,0,0.3-0.1,0.3-0.3
								C44.4,70.7,44.4,70.3,44.4,69.9z"/>
							<g>
								<path class="st0" d="M29.9,71.6c-0.6-0.5-1.1-1-1.7-1.4c-1.1-0.9-2.1-1.8-3.2-2.7c-0.1-0.1-0.2-0.2-0.2-0.3
									c0-0.5,0-0.9,0-1.4c0-0.2,0-0.2,0.2-0.2c1.6,0,3.2,0,4.8,0c0.1,0,0.2,0,0.2,0.2C30,67.7,30,69.6,29.9,71.6
									C30,71.5,30,71.6,29.9,71.6z"/>
							</g>
						</g>
						<g>
							<path class="st0" d="M30,64.7c-0.2,0-0.3,0-0.4,0c-8.8,0-17.7,0-26.5,0c-0.3,0-0.4-0.1-0.4-0.4c0-1.5,0-3,0-4.6
								c0-0.3,0.1-0.3,0.3-0.3c7.2,0,14.4,0,21.6,0c0.2,0,0.3,0.1,0.4,0.2c1.6,1.7,3.2,3.3,4.9,5C29.9,64.6,29.9,64.7,30,64.7z
								 M5.8,61.1c0.1,0,0.2,0.1,0.2,0.1c0.3,0,0.3,0.1,0.3,0.3c0,0.6,0,1.1,0,1.7c0,0.6-0.1,0.5,0.5,0.5c0.3,0,0.3-0.1,0.3-0.3
								c0-0.6,0-1.3,0-1.9c0-0.2,0-0.3,0.2-0.3c0.4,0,0.2-0.2,0.3-0.4c0-0.2-0.1-0.2-0.3-0.2c-0.7,0-1.3,0-2,0C5.1,60.5,5,60.6,5,61
								c0,0.4-0.1,0.9-0.1,1.3c-0.1-0.2-0.1-0.4-0.1-0.5c0-0.2,0-0.4-0.1-0.5c-0.1-0.6-0.1-0.6-0.7-0.6c-0.2,0-0.2,0.1-0.2,0.3
								c0.1,0.7,0.2,1.4,0.3,2c0.1,0.8,0.1,0.8,1,0.8c0.1,0,0.1,0,0.2,0c0.2,0,0.3-0.1,0.3-0.3C5.6,62.7,5.7,61.9,5.8,61.1z
								 M10.8,61.7C10.8,61.7,10.8,61.7,10.8,61.7c-0.2-0.3-0.3-0.7-0.4-1c-0.1-0.3-0.4-0.1-0.6-0.2c-0.2,0-0.2,0.1-0.2,0.3
								c0,0.9,0,1.8,0,2.6c0,0.3,0.2,0.2,0.4,0.2c0.2,0,0.4,0.1,0.4-0.2c0-0.3,0-0.6,0-0.8c0.2,0.3,0.3,0.6,0.4,0.9
								c0.1,0.4,0.4,0.1,0.6,0.2c0.2,0,0.2-0.2,0.2-0.3c0-0.9,0-1.7,0-2.6c0-0.3-0.2-0.3-0.3-0.3c-0.2,0-0.4-0.1-0.4,0.2
								C10.8,61.1,10.8,61.4,10.8,61.7z M11.8,62.1C11.8,62.1,11.8,62.1,11.8,62.1c0,0.3,0,0.6,0,0.9c0,0.2,0.1,0.4,0.3,0.6
								c0.3,0.2,0.9,0.2,1.3,0c0.3-0.2,0.4-0.6,0.4-1c0-0.1,0-0.1-0.1-0.1c-0.2,0-0.5-0.1-0.6,0c-0.1,0.1,0,0.3-0.1,0.5
								c0,0,0,0.1,0,0.1c0,0.1,0,0.1-0.1,0.1c-0.1,0-0.1-0.1-0.1-0.2c0-0.6,0-1.2,0-1.9c0-0.1,0-0.1,0.1-0.1c0.1,0,0.1,0.1,0.2,0.1
								c0,0.1,0,0.1,0,0.2c0,0.6,0,0.6,0.6,0.5c0,0,0.1,0,0.1,0c0.1,0,0.2,0,0.2-0.2c0-0.2,0-0.5-0.1-0.7c-0.1-0.4-0.5-0.6-1-0.6
								c-0.5,0.1-0.8,0.3-0.8,0.8C11.8,61.5,11.8,61.8,11.8,62.1z M15.7,62.1c0,0.3,0,0.7,0,1c0,0.6-0.1,0.5,0.6,0.5
								c0.2,0,0.3-0.1,0.3-0.3c0-0.2,0-0.5,0-0.7c0-0.2,0-0.3,0.3-0.3c0.5,0,0.6-0.2,0.7-0.6c0-0.2,0-0.5,0-0.7
								c0-0.3-0.2-0.4-0.4-0.5c-0.3-0.1-0.7,0-1-0.1c-0.2,0-0.3,0.1-0.3,0.2C15.7,61.2,15.7,61.7,15.7,62.1z M14,62.1
								c0,0.4,0,0.9,0,1.3c0,0.2,0.1,0.3,0.3,0.3c0.3,0,0.5,0,0.8,0c0.2,0,0.4,0,0.4-0.3c0-0.3,0-0.4-0.3-0.4
								c-0.2,0-0.3-0.1-0.3-0.3c0-0.2-0.1-0.4,0.2-0.4c0.2,0,0.3-0.1,0.3-0.3c0-0.2,0-0.4-0.3-0.3c-0.2,0-0.2-0.1-0.3-0.2
								c0-0.3,0.1-0.4,0.4-0.3c0.3,0,0.2-0.2,0.2-0.3c0-0.1,0.1-0.3-0.2-0.3c-0.3,0-0.6,0-0.9,0c-0.2,0-0.3,0.1-0.3,0.3
								C14,61.2,14,61.7,14,62.1z M19.2,62.4c0,0.3,0,0.7,0,1c0,0.2,0,0.3,0.3,0.3c0.1,0,0.2,0,0.3,0c0.2,0,0.3-0.1,0.3-0.3
								c0-0.6,0-1.3,0-1.9c0-0.2,0-0.3,0.3-0.3c0.3,0,0.2-0.2,0.2-0.4c0-0.2,0-0.3-0.2-0.3c-0.4,0-0.8,0-1.3,0c-0.2,0-0.3,0-0.3,0.2
								c0,0.2-0.1,0.5,0.3,0.4c0.2,0,0.2,0.1,0.2,0.2C19.1,61.8,19.2,62.1,19.2,62.4z M8.6,62.1c0,0.4,0,0.9,0,1.3
								c0,0.2,0.1,0.3,0.3,0.3c0.1,0,0.2,0,0.3,0c0.3,0,0.3-0.1,0.3-0.3c0-0.8,0-1.5,0-2.3c0-0.6,0.1-0.5-0.6-0.5
								c-0.2,0-0.3,0.1-0.3,0.3C8.6,61.2,8.6,61.7,8.6,62.1z M18.5,62.1c0-0.4,0-0.9,0-1.3c0-0.2,0-0.3-0.3-0.3c-0.1,0-0.2,0-0.3,0
								c-0.2,0-0.3,0.1-0.3,0.3c0,0.8,0,1.5,0,2.3c0,0.6,0,0.6,0.6,0.6c0.2,0,0.2-0.1,0.2-0.3C18.5,63,18.5,62.6,18.5,62.1z"/>
							<path class="st0" d="M16.5,61.5c0.1-0.1-0.1-0.3,0.1-0.3c0.2,0,0.1,0.2,0.1,0.4c0,0,0,0.1,0,0.1c0,0.1,0,0.3-0.2,0.2
								c-0.1,0-0.1-0.2-0.1-0.2C16.5,61.6,16.5,61.5,16.5,61.5z"/>
						</g>
					</g>
					<path class="st0" d="M39.1,69.9c0-0.3,0-0.5,0-0.8c0-0.1-0.1-0.2,0.1-0.2c0.1,0,0.2,0.1,0.2,0.2c0,0.1,0,0.2,0,0.4
						c0,0.4,0,0.8,0,1.2c0,0.1,0,0.3-0.2,0.3c-0.2,0-0.1-0.2-0.1-0.3C39.1,70.4,39.1,70.1,39.1,69.9z"/>
				</g>
			</g>
		</g>
	</g>
</g>
</svg>
