<?xml version="1.0" encoding="utf-8"?>
<!-- Generator: Adobe Illustrator 20.1.0, SVG Export Plug-In . SVG Version: 6.00 Build 0)  -->
<svg version="1.1" id="Layer_1" xmlns="http://www.w3.org/2000/svg" xmlns:xlink="http://www.w3.org/1999/xlink" x="0px" y="0px"
	 viewBox="0 0 254.3 270.3" style="enable-background:new 0 0 254.3 270.3;" xml:space="preserve">
<style type="text/css">
	.st0{fill:#8FC640;}
	.st1{fill:#FCBB30;}
	.st2{fill:#F2674A;}
	.st3{fill:#818084;}
	.st4{fill:#F89924;}
	.st5{fill:#828185;}
	.st6{fill:#858487;}
	.st7{fill:#F89B28;}
	.st8{fill:#828184;}
	.st9{fill:#818184;}
	.st10{fill:#F89A26;}
	.st11{fill:#F89A27;}
	.st12{fill:#F89B2A;}
	.st13{fill:#838286;}
	.st14{fill:#89878A;}
	.st15{fill:#878588;}
	.st16{fill:#868487;}
	.st17{fill:#868488;}
	.st18{fill:#8F8C8F;}
	.st19{fill:#8A888B;}
	.st20{fill:#88868A;}
	.st21{fill:#888689;}
	.st22{fill:#868588;}
	.st23{fill:#858387;}
	.st24{fill:#848386;}
	.st25{fill:#8B898C;}
	.st26{fill:#FFFFFE;}
	.st27{fill:#FEFEFD;}
	.st28{fill:#F5FAF0;}
	.st29{fill:#F6FAF1;}
	.st30{fill:#FFFEFD;}
	.st31{fill:#FFFDFA;}
	.st32{fill:#FFFEFC;}
	.st33{fill:#FFF9EF;}
	.st34{fill:#FAEEEB;}
	.st35{fill:#FBEEEB;}
	.st36{fill:#F3E7E5;}
	.st37{fill:#EFE4E2;}
	.st38{fill:#F4E8E5;}
	.st39{fill:#E6DBDA;}
	.st40{fill:#F8ECE9;}
	.st41{fill:#F5E9E7;}
	.st42{fill:#E8DDDC;}
	.st43{fill:#EDE2E0;}
	.st44{fill:#92C744;}
</style>
<path class="st0" d="M19.5,112.5c2.7-14.9,9.2-28,18.5-40c17.4-22.1,40.1-35.2,67.3-40.7c32.6-6.6,61.9,1.4,87.6,22
	c20.9,16.7,33.5,38.6,38.2,65c2.8,15.5,2,30.9-2,46.2c-0.1,0.5-0.4,1-0.6,1.5c-1.4,0.9-2.7,0.2-4-0.1c-31.8-8.7-63.6-17.1-95.4-25.8
	c-1.2-0.3-2.3-0.6-3.5-0.9c-0.6-0.1-1.2-0.3-1.7-0.5c-16.7-4.1-33.4-8.1-50.1-12.2c-17-4.2-34.1-8.3-51-12.9
	C21.6,113.9,20.3,113.7,19.5,112.5z"/>
<path class="st1" d="M124.3,138.7c0.4,0.1,0.8,0.3,1.2,0.4c1.4,1.9,1.6,4.1,2.2,6.2c8.4,30.4,16.8,60.7,25.2,91.1
	c0.4,1.5,1.3,3.1,0.5,4.8c-10.7,3.2-21.8,4.3-32.9,3.8c-13.9-0.6-27.3-3.6-39.9-9.5c-27.4-12.7-46.4-33.3-57.1-61.5
	c-1.1-3-2.4-6-2.8-9.3c0.8-1.1,2-1.2,3.2-1.5c31.9-8,63.7-16.2,95.6-24.1C121,138.9,122.6,138.8,124.3,138.7z"/>
<path class="st2" d="M153.2,241.3c-9.1-33.2-18.2-66.3-27.4-99.5c-0.2-0.9-0.5-1.8-0.4-2.7c6.5,1.2,12.9,3.2,19.3,5
	c27.5,7.4,55,14.8,82.5,22.2c0.4,0.1,0.9,0.2,1.4,0.3c-1.7,7.9-5,15.3-8.9,22.3c-14.7,26.3-36.5,43.7-65.4,52.3
	C154,241.2,153.6,241.2,153.2,241.3z"/>
<path class="st2" d="M124.3,138.7c-9.1,2.4-18.1,4.8-27.2,7.1c-24.8,6.3-49.7,12.5-74.5,18.8c-0.6,0.2-1.3,0.2-1.9,0.3
	c-2.1-6.6-2.9-13.5-3.4-20.4c-0.8-10.7,0.2-21.4,2.3-31.9c20.4,5.6,41,10.6,61.6,15.6C95.5,131.6,109.9,135.1,124.3,138.7z"/>
<path class="st3" d="M88.9,11c0,1.8,0,3.7,0,5.5c0,0.7,0.1,1.6-1.1,1.5c-1-0.1-0.8-0.9-0.8-1.5c0-3.3,0-6.6,0-10
	c0-0.6-0.2-1.4,0.7-1.6c0.9-0.2,1.3,0.4,1.6,1.1c1,2.3,2,4.5,3.3,7.3c1.2-2.7,2.1-4.8,3.1-6.9c0.3-0.7,0.6-1.7,1.7-1.5
	c1.3,0.2,0.8,1.3,0.8,2c0.1,3.1,0,6.3,0,9.4c0,0.7,0.3,1.6-0.9,1.7c-1.1,0-0.9-0.9-1-1.6c0-1.8,0-3.6-0.5-5.6
	c-0.5,1.2-1,2.4-1.6,3.6c-0.3,0.7-0.4,1.7-1.5,1.8c-1.3,0.1-1.3-1.1-1.7-1.9c-0.6-1.1-1.1-2.3-1.6-3.4C89.3,10.9,89.1,10.9,88.9,11z
	"/>
<path class="st4" d="M6.3,170.1c2.1-0.7,4.2-0.9,5.5,1.2c1.5,2.3,1.4,4.8,0.2,7.1c-1.5,2.9-6,2.7-7.6-0.1c-0.3-0.5-0.9-1.2-0.2-1.7
	c0.6-0.4,1.4-0.4,1.9,0.3c1,1.4,2.4,1.8,3.5,0.7c1.4-1.4,1.2-3.3,0.2-4.9c-0.8-1.2-1.9-0.9-3.2-0.2c-2.1,1.2-2.7,0.8-2.7-1.6
	c-0.1-6.4-0.1-6.5,6.4-6.2c0.8,0,2-0.4,2,1.2c-0.1,1.6-1.3,0.9-2.1,1.1c-0.5,0.1-0.9,0-1.4,0C5.9,167,5.9,167,6.3,170.1z"/>
<path class="st5" d="M145.4,262c0-2.3,0-4.6,0-6.9c0-0.6-0.1-1.4,0.9-1.4c0.9,0,1.1,0.6,1.1,1.3c0,3.5,0,7,0,10.5
	c0,0.6-0.1,1.1-0.8,1.3c-0.7,0.2-1.2-0.2-1.6-0.8c-1.2-1.9-2.3-3.8-3.6-5.6c-0.5-0.7-0.7-1.7-2-2.1c0,2.4,0,4.7,0,6.9
	c0,0.6,0.1,1.4-0.8,1.5c-1.2,0.1-1-0.9-1-1.5c0-3.2,0-6.5,0-9.7c0-0.7-0.3-1.6,0.7-1.8c0.9-0.2,1.3,0.4,1.8,1.1
	c1.6,2.5,3.2,4.9,4.7,7.4C145,262.1,145.2,262.1,145.4,262z"/>
<path class="st6" d="M155.4,11.6c0,1.7,0,3.3,0,5c0,0.8,0,1.5-1.1,1.5c-1.1,0-1-0.9-1-1.6c0-0.4,0-0.7,0-1.1c0-2.8-1.5-3.7-4.2-2.9
	c-1,0.3-0.9,1-0.9,1.7c0,1,0,2-0.1,3c0,0.7-0.5,0.9-1.1,0.9c-0.5,0-0.9-0.3-0.9-0.8c0-3.8,0-7.6,0-11.3c0-0.7,0.4-1,1.1-0.9
	c0.7,0,1,0.5,1,1.1c0,0.6,0.1,1.3,0,1.9c-0.3,2.1,0.6,2.6,2.6,2.6c1.9,0,2.7-0.6,2.5-2.5c-0.1-0.5,0-1.1,0-1.7
	c0-0.8,0.1-1.5,1.2-1.5c0.9,0.1,0.9,0.7,0.9,1.4C155.4,8.1,155.4,9.8,155.4,11.6z"/>
<path class="st3" d="M104.4,258.5c0,2.1,0,4.2,0,6.4c0,0.7,0.4,1.9-0.9,1.9c-1.1,0-0.9-1-0.9-1.7c0-3.2,0-6.5,0-9.7
	c0-0.6-0.2-1.4,0.7-1.6c0.9-0.3,1.3,0.4,1.7,1c1.6,2.5,3.2,4.9,5,7.9c0.7-2.7,0.2-5,0.4-7.2c0-0.7-0.2-1.7,0.9-1.7
	c1.1,0,0.9,0.9,0.9,1.6c0,3.1,0,6.3,0,9.4c0,0.7,0.4,1.6-0.6,1.9c-1.2,0.4-1.6-0.6-2.1-1.3c-1.5-2.4-3-4.8-4.6-7.1
	C104.7,258.4,104.5,258.4,104.4,258.5z"/>
<path class="st3" d="M125.4,13.4c0-2.3,0-4.6,0-6.9c0-0.6-0.2-1.4,0.8-1.5c1.1-0.1,1,0.8,1,1.5c0,3.2,0,6.5,0,9.7
	c0,0.7,0.3,1.6-0.7,1.8c-0.9,0.2-1.3-0.4-1.7-1.1c-1.6-2.5-3.2-5-5.3-7.4c0,2.3,0,4.6,0,6.9c0,0.6,0.2,1.4-0.8,1.5
	c-1.2,0.1-1-0.8-1-1.5c0-3.3,0-6.6,0-10c0-0.6-0.1-1.4,0.8-1.6c0.7-0.1,1.2,0.3,1.6,0.9c1.7,2.6,3.4,5.2,5,7.8
	C125.1,13.6,125.2,13.5,125.4,13.4z"/>
<path class="st7" d="M242.2,161c5.2,0,5.3,0.2,3.4,5c-1.2,3-2.4,6-3.5,9c-0.5,1.3-1.1,2.4-2.5,1.7c-1.2-0.6,0-1.6,0.2-2.3
	c1.1-2.9,2.3-5.8,3.4-8.8c0.3-0.7,1.2-1.7,0-2.1c-1-0.3-2.7-0.9-3.2,0.9c-0.2,0.9-0.6,1.3-1.5,1.2c-0.9-0.1-0.8-0.8-0.9-1.5
	C237.3,161,237.3,161,242.2,161z"/>
<path class="st8" d="M134.3,11.5c0-1.2,0-2.4,0.4-3.6c0.6-1.9,2.1-2.8,3.9-3c1.8-0.2,3.2,0.7,4.2,2.1c0.3,0.4,0.8,1,0.3,1.5
	c-0.5,0.5-1.2,0.4-1.8-0.1c-0.6-0.6-1.1-1.3-2-1.4c-1.1-0.1-2.2,0.1-2.6,1.2c-0.8,2.2-0.8,4.5,0,6.8c0.4,1,1.5,1.5,2.5,1.3
	c1-0.2,1.9-0.8,2.1-1.9c0.3-1.3-0.5-1.6-1.5-1.6c-0.6,0-0.8-0.4-0.8-0.9c0-0.6,0.5-0.7,0.9-0.8c2.8-0.7,4,0.4,3.5,3.2
	c-0.4,2.4-2.2,4-4.6,4c-2.4,0-4.2-1.5-4.6-3.9C134.3,13.3,134.4,12.4,134.3,11.5z"/>
<path class="st9" d="M115,9.6c-0.2-3.5-2.3-4.8-7-4.7c-3.6,0.1-1.5,2.8-2,4.3c-0.2,0.7,0,1.5,0,2.2c0,1.7,0,3.3,0,5
	c0,0.7-0.1,1.4,0.9,1.7c4.4,1.4,8.1-1.2,8.2-5.7C115,11.4,115,10.5,115,9.6z M112.5,15.1c-1,1.2-2.3,1.4-3.7,1.2
	c-1.7-0.3-1-1.7-1-2.7c-0.1-1.3-0.1-2.6,0-3.8c0.1-1.1-0.8-2.8,1.5-2.8c1.9-0.1,3.5,0.3,3.8,2.5c0.1,0.7,0.1,1.5,0.1,1.7
	C113.2,12.8,113.3,14,112.5,15.1z"/>
<path class="st8" d="M125.9,260c0.1-1.1-0.2-2.4,0.4-3.6c0.7-1.7,2.2-2.5,3.9-2.7c1.9-0.2,3.7,0.6,4.4,2.3c1.2,3,1.3,6.2-0.3,9
	c-0.9,1.6-2.7,2.2-4.6,1.8C126.9,266.3,125.9,264.6,125.9,260z"/>
<path class="st10" d="M5.1,104.7c-0.4-2,0.1-2.8,1.9-2.7c1.7,0.1,3.3,0.1,5,0c2-0.2,2.3,1,1.8,2.4c-1.5,4.2-3.2,8.4-4.9,12.6
	c-0.3,0.9-1.1,1-1.8,0.8c-1.2-0.4-0.5-1.2-0.3-1.8c1.2-3.2,2.5-6.3,3.7-9.5c0.2-0.7,1.2-1.7-0.1-2c-1-0.3-2.5-0.9-3.1,0.6
	c-0.3,0.8-0.3,1.7-1.5,1.4C4.4,106.3,5.3,105,5.1,104.7z"/>
<path class="st3" d="M114.7,260.3c0-0.4,0-0.7,0-1.1c0.1-3.6,1.8-5.6,4.6-5.6c2.9,0.1,4.5,2,4.5,5.7c0,0.9,0,1.8,0,2.8
	c-0.1,3-1.8,4.8-4.5,4.8c-2.7,0-4.4-1.8-4.6-4.7C114.7,261.5,114.7,260.9,114.7,260.3C114.7,260.3,114.7,260.3,114.7,260.3z"/>
<path class="st11" d="M160,255.3c0,2.1,0,4.2,0,6.4c0,0.7-0.1,1.3-1,1.3c-1,0-1.3-0.4-1.3-1.3c0-3.1,0.1-6.3,0-9.4
	c0-0.8,0.7-2.7-1.5-1.5c-0.2,0.1-0.6,0.2-0.6-0.2c-0.1-0.6-0.3-1.3,0.3-1.8c0.9-0.8,1.8-1.6,3.1-1.4c0.9,0.1,1,0.6,1,1.3
	C160,250.9,160,253.1,160,255.3z"/>
<path class="st12" d="M170.6,255.5c0,2,0,4.1,0,6.1c0,0.8-0.1,1.4-1.2,1.4c-1.1,0-1.1-0.7-1.1-1.5c0-3.2,0-6.4,0-9.7
	c0-0.9,0.2-2.2-1.4-1.1c-0.3,0.2-0.7,0.2-0.8-0.3c-0.1-0.8,0-1.4,0.7-2c0.9-0.7,1.8-1.3,3-1.1c0.9,0.2,0.8,0.9,0.8,1.5
	C170.6,251.1,170.6,253.3,170.6,255.5z"/>
<path class="st13" d="M161.5,4.9c0.4,0,0.7-0.1,1.1,0c1.1,0.2,2.9-0.7,3.1,0.7c0.3,1.7-1.6,0.8-2.5,1.1c-1.1,0.3-1,1.2-1,2
	c0,2.6,0,5.2,0,7.7c0,0.7,0.2,1.6-0.9,1.7c-1.2,0-0.9-0.9-0.9-1.6c0-2.5-0.1-5,0-7.5c0.1-1.5-0.3-2.5-2.1-2.4
	c-0.6,0-1.5,0.2-1.5-0.7c0-1.1,0.9-0.9,1.6-1C159.4,4.9,160.5,4.9,161.5,4.9z"/>
<path class="st14" d="M101,11.3c0-1.7,0-3.3,0-5c0-0.6-0.1-1.4,0.9-1.4c1,0,1.2,0.6,1.2,1.4c0,3.5,0,7,0,10.5c0,0.7-0.2,1.2-1.1,1.3
	c-0.9,0-1-0.6-1-1.3C101,15,101,13.1,101,11.3z"/>
<path class="st14" d="M132.1,11.2c0,1.9,0,3.7,0,5.6c0,0.7-0.1,1.3-1,1.3c-0.9,0-1.1-0.6-1.1-1.3c0-3.5,0-7,0-10.5
	c0-0.7,0.3-1.3,1.1-1.3c1.2,0,1,0.9,1,1.6C132.1,8.1,132.1,9.7,132.1,11.2z"/>
<path class="st15" d="M20.3,82.9c0.7-0.8,0.3-1.8,0.2-2.8c-0.2-1.4,0.7-2.4,2-2.4c1.4-0.1,2.6,0.8,2.4,2.4c-0.2,1.1-0.1,2.1,0.1,3.1
	c0.2,1-0.3,1.8-1.1,2.3c-0.9,0.5-1.7,0.5-2.6-0.1C20.4,84.8,20.1,83.9,20.3,82.9z"/>
<path class="st15" d="M228.8,193.1c-0.5,0.7,0,1.4,0.2,2.1c0.4,1.1-0.1,2-1,2.6c-0.8,0.5-1.8,0.5-2.6,0c-1-0.6-1.4-1.5-1-2.6
	c0.2-0.7,0.6-1.3,0.2-2.1c-0.6-1.1,0-2,0.9-2.6c0.7-0.5,1.6-0.5,2.4,0C228.9,191,229,192,228.8,193.1z"/>
<path class="st16" d="M187,236.8c0-0.6,0-1.3,0.1-1.9c0.3-1.2,1.1-2.1,2.4-1.8c2.8,0.5,1.9,2.9,2.1,4.7c0.1,1.5,0,3.1-1.9,3.5
	c-1.4,0.3-2.3-0.5-2.6-1.9C187,238.5,187.1,237.7,187,236.8C187.1,236.8,187.1,236.8,187,236.8z"/>
<path class="st17" d="M62.6,36.6c0-0.7-0.1-1.5,0-2.2c0.1-1.2,0.9-1.8,2-1.9c1.2-0.1,2,0.5,2.3,1.5c0.4,1.6,0.4,3.3,0,4.9
	c-0.2,1.1-1.1,1.7-2.2,1.7c-1.2-0.1-2.1-0.8-2.1-2.1C62.6,37.9,62.6,37.3,62.6,36.6C62.6,36.6,62.6,36.6,62.6,36.6z"/>
<path class="st18" d="M228.4,81.3c1.1,0.6,0.7,1.6,1.1,2.3c0.5,0.8-0.1,1.4-0.6,1.9c-0.6,0.6-0.8-0.3-1.3-0.5
	c-3.2-1.5-3.2-1.5-1.6-4.7c0.5-0.9,0.5-2.2,2-2.6c0.4,1.7-0.9,2.7-1.3,4c-0.1,0.6-1.2,1.3,0,1.7c1,0.4,1-0.7,1.2-1.4
	C227.9,81.8,228.1,81.6,228.4,81.3z"/>
<path class="st19" d="M206.7,53.9c0.4-1.3,1.2-2,2.6-1.6c1.4,0.3,2,1.3,1.7,2.7c-0.2,0.8-0.2,1.5,0.1,2.4c0.4,1.3-0.1,2.4-1.4,2.9
	c-1.4,0.5-2.4-0.1-3-1.5c0.7-0.7,1.1-0.1,1.5,0.2c0.5,0.3,1.1,0.3,1.5-0.2c0.5-0.6,0.5-1.2-0.1-1.7c-0.6-0.5-1.7-0.9-0.2-1.6
	c0.7-0.4,0.8-1,0.3-1.6c-0.4-0.5-1-0.3-1.5,0C207.7,53.9,207.4,54.4,206.7,53.9z"/>
<path class="st20" d="M64.5,239.6c0.7,0.9,2,0,2.6,1.2c-1.1,0.8-2.4,0.5-3.6,0.4c-1.1-0.1-0.9-0.9-0.5-1.6c0.5-0.7,1-1.3,1.5-2
	c0.6-0.9,1.9-1.5,1.2-2.8c-1-1.6-1.8,0.7-3.1,0.2c0.6-1.5,1.4-2.4,3-1.7c1.5,0.6,2,1.9,1.1,3.4C66,237.7,65.2,238.7,64.5,239.6z"/>
<path class="st14" d="M38.6,59.1c0.5-1.7,1.1-3-1-4.2c-1-0.6-0.6-2.1,0.1-3c0.6-0.8,1.4-1.2,2.5-0.8c1.1,0.4,1.6,1.3,1.5,2.4
	C41.4,55.8,40.3,57.6,38.6,59.1z"/>
<path class="st21" d="M6.5,136.4c-0.1,1.6-1.5,2.9,0.9,4c0.9,0.4,0.7,2,0.1,3c-0.5,0.8-1.4,1.2-2.4,0.9c-1.1-0.3-1.8-1.2-1.7-2.3
	C3.6,139.9,4.7,138,6.5,136.4z"/>
<path class="st14" d="M181.7,35.7c0.5-1.7,1.6-2.5,3.1-1.7c1.6,0.8,1.7,2.3,0.7,3.7c-0.6,0.9-1.3,1.7-2,2.6c0.7,0.9,1.8,0.1,2.3,1
	c-0.1,0.2-0.2,0.5-0.4,0.5c-0.6,0.1-1.3,0.2-1.9,0.1c-0.7,0-1.6,0.4-1.9-0.6c-0.3-0.7,0.4-1.2,0.7-1.7c0.5-0.6,1-1.1,1.4-1.7
	c0.5-0.8,1.7-1.5,0.8-2.6C183.6,34,183,36.1,181.7,35.7z"/>
<path class="st20" d="M245,136.5c-0.6,1.6-1.1,3,0.9,4.1c1,0.6,0.7,2-0.1,3c-0.6,0.8-1.4,1.2-2.4,0.8c-1.2-0.5-1.8-1.4-1.5-2.6
	C242.3,139.8,243.2,137.9,245,136.5z"/>
<path class="st22" d="M207.9,221.3c0.3-1.7,1.1-3-1.1-4c-0.8-0.4-0.7-2,0-3c0.6-0.9,1.7-1.1,2.7-0.7c1.2,0.5,1.7,1.6,1.3,2.7
	C210.3,218.1,209.4,219.8,207.9,221.3z"/>
<path class="st6" d="M23.2,193.1c0.5,1.4,0.9,2.2,1,3.1c0.2,1-0.8,1.7-1.8,1c-1-0.6-2.7,0.5-3.1-1c-0.3-1.4,0.9-2.6,1.4-3.8
	c0.4-0.8,0.4-1.9,1.7-2.1c0.1,1.5-0.9,2.6-1.3,3.8c-0.2,0.5-1.1,1.2-0.1,1.6c1,0.4,1.5-0.2,1.5-1.3
	C22.6,194.2,22.8,193.9,23.2,193.1z"/>
<path class="st14" d="M239.7,105.8c-0.1,0.6-0.6,0.6-1,0.6c-0.7,0.1-1.9-0.5-2,0.8c-0.1,1.2,1.1,0.6,1.7,0.8
	c2.1,0.7,1.8,2.5,1.3,3.9c-0.4,1.5-1.7,2.2-3.2,1.1c-0.1-0.6,0.1-0.8,0.7-0.6c1.6-0.1,1.8-1.3,1.4-2.3c-0.5-1.7-1.7-0.6-2.7-0.4
	C235.2,105.4,235.5,105.1,239.7,105.8z"/>
<path class="st19" d="M41.6,214.7c0.5,1.5-0.3,3.1,0.3,4.7c0.3,0.7-0.6,1.7-1.6,1.9c-1.2,0.2-2.4,0.1-2.8-1.4c0.5-0.5,0.8-0.3,1.2,0
	c0.7,0.4,1.4,0.5,1.9-0.4c0.4-0.7,0-1.2-0.6-1.6c-1.9-1.1,0-1.2,0.5-1.6C41.2,216,40.1,214.6,41.6,214.7z"/>
<path class="st23" d="M59.9,40.5c-1.5-1.2-0.9-2.5-1.1-3.7c-0.2-0.9,0.4-1.9-0.7-2.7c-0.9-0.6,0-1.1,0.5-1.3
	c0.7-0.3,1.3-0.1,1.3,0.8C59.9,35.8,59.9,38.1,59.9,40.5z"/>
<path class="st8" d="M93.9,30.1c-0.6-1.1-0.2-2.3-0.3-3.5c-0.1-0.6-0.2-1.4,0-1.9c0.4-1-2.3-0.6-0.8-1.8c0.3-0.3,1-0.5,1.2-0.3
	c1.1,0.6,0.6,1.8,0.6,2.7c0.1,1.6,0,3.2,0,4.8C94.5,30.1,94.2,30.1,93.9,30.1z"/>
<path class="st21" d="M93.3,254c-1.4-2.9,0.3-5.5-1.5-7.6c-0.3-0.4,0.5-0.8,1.1-1c0.6-0.1,0.9,0.2,0.9,0.7
	C93.6,248.6,94.1,251,93.3,254z"/>
<path class="st5" d="M88.4,30.1c-1.1-2.1,0.7-4.8-1.2-6.8c-0.2-0.2,0.4-0.7,0.9-0.8c0.7-0.1,1.1,0.2,1.1,0.9c0,2.2,0,4.5,0,6.7
	C89,30.1,88.7,30.1,88.4,30.1z"/>
<path class="st5" d="M156.5,30.8c-1.4-2.8,0.4-5.5-1.6-7.5c-0.2-0.2,0.4-0.7,0.9-0.8c0.7-0.1,1.1,0.2,1.1,0.9
	C156.9,25.6,157.2,27.9,156.5,30.8z"/>
<path class="st24" d="M184.4,241.2c-1.6-0.7-1-1.8-1.1-2.7c-0.2-1.2,0.5-2.6-0.5-3.7c-0.4-0.4-0.6-0.7-0.2-1.1
	c0.3-0.3,0.8-0.5,1.2-0.5c0.6,0,0.6,0.6,0.6,1.1C184.4,236.5,184.4,238.7,184.4,241.2z"/>
<path class="st25" d="M41.6,214.7c-0.4,0.6-0.7,1.1-1.1,1.7c-0.5-1.9-0.5-1.9-2.9-1.2C38.8,213,39.7,212.8,41.6,214.7z"/>
<path class="st25" d="M239.7,105.8c-3.8,0-3.8,0-3.8,3.8c-0.9-1.3-1-3-0.1-3.9C236.7,104.9,238.5,104.9,239.7,105.8z"/>
<path class="st18" d="M237.2,112.4c-0.2,0.2-0.5,0.4-0.7,0.6c-0.6-0.2-1.3-0.9-0.9-1.3C236.3,111,236.8,112,237.2,112.4z"/>
<path class="st26" d="M211.6,141.1c1.8-4.1,3.3-7.5,4.8-11c0.5-1.3,1.2-2.1,2.7-1.7c1.5,0.3,0.9,1.6,0.9,2.5c0.1,5.1,0,10.2,0,15.3
	c0,1.1,0.1,2-1.5,2c-1.7,0-1.4-1.1-1.4-2c0-3,0-6-0.5-9.2c-0.9,2.1-1.8,4.3-2.8,6.4c-0.4,1-0.6,2.1-2.2,2.1c-1.6,0-1.7-1.2-2.1-2.2
	c-1-2.1-1.9-4.2-3.3-6.2c0,2.9,0,5.8,0,8.7c0,1,0.6,2.5-1.5,2.5c-2-0.1-1.3-1.4-1.3-2.4c-0.1-4.8-0.1-9.6,0-14.4c0-1-0.9-2.5,1-3
	c1.9-0.4,2.3,1.1,2.8,2.4C208.4,134,209.9,137.2,211.6,141.1z"/>
<path class="st27" d="M194.3,147.8c-2,0.7-3.4,0.4-3.8-1.8c-0.3-2.1-1.6-2.6-3.5-2.4c-0.9,0.1-1.9,0.1-2.8,0
	c-1.6-0.2-2.4,0.4-2.7,1.9c-0.4,2.1-1.4,3.1-3.9,2.2c2.2-6.2,4.5-12.3,6.7-18.5c0.3-0.9,1-1,1.8-0.9c0.9,0,1.3,0.5,1.5,1.3
	C189.9,135.7,192.1,141.7,194.3,147.8z"/>
<path class="st28" d="M226.7,146.7c0.1,1.1-0.5,1.4-1.5,1.4c-1.1,0-1.4-0.5-1.4-1.5c0-1.1,0.5-1.4,1.5-1.4
	C226.4,145.2,226.8,145.6,226.7,146.7z"/>
<path class="st29" d="M197.9,148c-1,0.1-1.6-0.1-1.6-1.3c0-0.9,0.1-1.6,1.3-1.6c0.9,0,1.6,0.1,1.6,1.3
	C199.2,147.5,199.1,148.2,197.9,148z"/>
<path class="st30" d="M52.6,141.1c1.7-4,3.2-7.4,4.7-10.9c0.5-1.2,1.1-2.1,2.6-1.8c1.6,0.3,1,1.5,1.1,2.4c0.1,5.1,0,10.2,0,15.3
	c0,1.1,0.1,2-1.5,2c-1.5,0-1.6-0.8-1.6-1.9c0-2.9,0-5.9-0.5-9c-1,2.1-1.9,4.2-2.9,6.4c-0.4,0.9-0.6,1.7-1.9,1.7
	c-1.4,0.1-1.7-0.8-2.1-1.8c-1-2.2-1.9-4.4-3.4-6.6c0,3,0,6.1,0,9.1c0,1,0.2,2.1-1.4,2.1c-1.6,0-1.5-0.9-1.5-2c0-5.2,0-10.4,0-15.5
	c0-0.8-0.4-1.9,1.1-2.1c1.2-0.2,1.9,0.3,2.4,1.4C49.1,133.4,50.7,136.9,52.6,141.1z"/>
<path class="st31" d="M24.6,138.1c0-2.6,0-5.2,0-7.8c0-1.4,0.5-2,1.9-1.9c2.2,0.1,4.5-0.1,6.7,0.2c3.3,0.3,5.3,2.8,5.1,6.1
	c-0.1,3-2.4,5.3-5.4,5.7c-1.7,0.2-3.9-0.9-4.9,0.6c-0.8,1.2-0.2,3.2-0.3,4.9c0,1,0.4,2.3-1.5,2.3c-1.8,0-1.6-1.1-1.6-2.2
	C24.6,143.3,24.6,140.7,24.6,138.1z"/>
<path class="st32" d="M67.7,146.5c0.1,1-0.1,1.6-1.3,1.5c-0.9,0-1.6-0.2-1.5-1.3c0-0.9,0.1-1.6,1.3-1.5
	C67.1,145.2,67.8,145.3,67.7,146.5z"/>
<path class="st33" d="M38.7,145.2c1.3-0.1,1.4,0.6,1.4,1.6c0,1-0.5,1.2-1.4,1.3c-1.1,0-1.5-0.4-1.5-1.5
	C37.2,145.5,37.7,145.1,38.7,145.2z"/>
<path class="st34" d="M133.2,260.3c0,0.7,0.1,1.5,0,2.2c-0.2,1.5-1.1,2.4-2.5,2.4c-1.3,0-2.2-0.6-2.6-2c-0.4-1.6-0.4-3.1-0.1-4.6
	c0.2-1.5,1-2.6,2.7-2.5c1.8,0.1,2.5,1.2,2.6,2.9C133.2,259.2,133.2,259.7,133.2,260.3C133.2,260.3,133.2,260.3,133.2,260.3z"/>
<path class="st35" d="M116.5,260.2c0.1-0.9,0.1-1.8,0.3-2.7c0.3-1.2,1.2-1.8,2.4-1.8c1.2,0,2.1,0.5,2.5,1.8c0.5,1.6,0.4,3.3,0.2,4.9
	c-0.2,1.5-1.1,2.6-2.7,2.5c-1.6-0.1-2.4-1.1-2.6-2.7c0-0.6,0-1.3,0-1.9C116.6,260.3,116.5,260.3,116.5,260.2z"/>
<path class="st36" d="M23.8,83.2c0,0.8-0.3,1.3-1.1,1.4c-0.6,0.1-1-0.3-1.2-0.9c-0.2-0.8,0.2-1.3,0.9-1.5
	C23.2,82,23.7,82.5,23.8,83.2z"/>
<path class="st37" d="M23.7,79.8c0.1,0.7-0.3,1-0.9,1.1c-0.6,0.1-1.1-0.1-1.2-0.8c-0.1-0.7,0.3-1.2,1-1.3
	C23.2,78.8,23.6,79.2,23.7,79.8z"/>
<path class="st38" d="M226.7,196.9c-0.7-0.1-1.2-0.4-1.2-1.2c0-0.6,0.5-1,1.1-1.1c0.8-0.1,1.3,0.3,1.4,1
	C228,196.5,227.4,196.8,226.7,196.9z"/>
<path class="st39" d="M227.7,192.2c0,0.6-0.3,1.1-0.9,1.2c-0.7,0.1-1.2-0.3-1.2-1c0-0.6,0.4-1,1-1
	C227.2,191.2,227.6,191.6,227.7,192.2z"/>
<path class="st40" d="M190.5,237.3c-0.2,1.2,0.3,2.6-1.1,2.7c-1.4,0-1.2-1.4-1.1-2.4c0.1-1.2-0.7-3.2,1.1-3.2
	C191.3,234.4,190,236.5,190.5,237.3z"/>
<path class="st41" d="M63.7,36.5c0.4-0.9-0.7-2.8,1.2-2.7c1.5,0,1.1,1.7,1,2.7c0,1.1,0.6,2.9-1.2,2.8C63.2,39.3,63.9,37.6,63.7,36.5
	z"/>
<path class="st42" d="M40.6,53.6c-0.1,0.6-0.3,1.1-1,1.1c-0.8,0-1.2-0.5-1.2-1.3c0-0.7,0.4-1.3,1.2-1.2
	C40.3,52.3,40.6,52.9,40.6,53.6z"/>
<path class="st43" d="M4.4,142.2c0-0.7,0.3-1.3,1.1-1.4c0.7-0.1,1,0.3,1.1,1c0.1,0.7-0.2,1.4-0.9,1.5C5,143.5,4.6,142.9,4.4,142.2z"
	/>
<path class="st37" d="M245.2,141.9c0,0.7-0.4,1.3-1.1,1.3c-0.8,0.1-1.1-0.5-1.1-1.2c0-0.6,0.2-1.1,0.9-1.2
	C244.6,140.8,245.1,141.2,245.2,141.9z"/>
<path class="st36" d="M208.6,216.9c-0.7,0-1-0.5-1-1.1c0-0.7,0.3-1.3,1.1-1.2c0.6,0,1,0.4,1,1C209.7,216.4,209.4,216.8,208.6,216.9z
	"/>
<path class="st44" d="M186.2,133.3c0.6,1.6,1,3.3,1.7,4.9c1.1,2.3,0.5,2.8-2,2.8c-2.7,0-2.9-0.7-1.9-2.9c0.7-1.6,1.1-3.2,1.7-4.9
	C185.9,133.2,186.1,133.3,186.2,133.3z"/>
<path class="st2" d="M27.7,134.3c-0.5-2.4,0.3-3.4,2.8-3.1c2.2,0.2,4.4,0.1,4.8,3c0.2,2.3-1.5,3.1-4.9,3.4
	C27.5,137.8,27.4,136.4,27.7,134.3z"/>
</svg>
