<?xml version="1.0" encoding="utf-8"?>
<!-- Generator: Adobe Illustrator 20.1.0, SVG Export Plug-In . SVG Version: 6.00 Build 0)  -->
<svg version="1.1" id="Layer_1" xmlns="http://www.w3.org/2000/svg" xmlns:xlink="http://www.w3.org/1999/xlink" x="0px" y="0px"
	 viewBox="0 0 254.3 270.3" style="enable-background:new 0 0 254.3 270.3;" xml:space="preserve">
<style type="text/css">
	.st0{fill:#EFE4E2;}
	.st1{fill:#8FC640;}
	.st2{fill:#868488;}
	.st3{fill:#89878A;}
	.st4{fill:#8B898C;}
	.st5{fill:#838285;}
	.st6{fill:#8D8A8D;}
	.st7{fill:#989497;}
	.st8{fill:#908D90;}
	.st9{fill:#F7FBF3;}
	.st10{fill:#FBFDF9;}
	.st11{fill:#E9F3DB;}
	.st12{fill:#F1F7E9;}
	.st13{fill:#F6EAE8;}
	.st14{fill:#FDF0ED;}
	.st15{fill:#E5DAD9;}
	.st16{fill:#92C744;}
</style>
<path class="st0" d="M245.2,141.9c0,0.7-0.4,1.3-1.1,1.3c-0.8,0.1-1.1-0.5-1.1-1.2c0-0.6,0.2-1.1,0.9-1.2
	C244.6,140.8,245.1,141.2,245.2,141.9z"/>
<path class="st1" d="M24.7,138.2c0.1-57.9,46.9-104.2,105-104c57.3,0.2,103.8,47,103.6,104.6c-0.2,57.5-47.1,104-104.7,103.8
	C71.2,242.4,24.5,195.5,24.7,138.2z M66.7,134.1c0.2,0,0.3-0.1,0.5-0.1c1.1,2.5,2.2,5,3.3,7.4c0.5,1.1,0.6,2.5,2.5,2.6
	c2.1,0.1,2.2-1.5,2.8-2.7c1.2-2.5,2.2-5,3.3-7.5c0.5,4,0.6,7.8,0.5,11.5c0,1.4,0.2,2.1,1.9,2.1c1.7,0,1.8-0.9,1.8-2.2
	c0-6.3,0-12.5-0.1-18.8c0-0.9,0.8-2.5-1.2-2.7c-1.7-0.2-2.5,0.3-3.2,2c-1.7,4.3-3.6,8.5-5.6,13.1c-0.6-1.2-0.9-1.8-1.2-2.5
	c-1.7-3.8-3.4-7.5-5-11.3c-0.7-1.7-1.9-1.3-3.1-1.2c-1.5,0.1-0.9,1.3-0.9,2.1c0,6.4,0,12.9,0,19.3c0,1.2-0.1,2.2,1.7,2.2
	c1.8,0,2-0.8,2-2.3C66.7,141.5,66.7,137.8,66.7,134.1z M202.8,138.8c-0.4-0.6-0.6-0.9-0.8-1.2c-1.8-4.1-3.7-8.1-5.4-12.2
	c-0.7-1.7-1.9-1.6-3.2-1.5c-1.6,0.2-0.9,1.5-1,2.3c-0.1,6.3,0,12.5,0,18.8c0,1.3-0.2,2.4,1.8,2.5c2.3,0.1,1.9-1.3,1.9-2.6
	c0-3.7,0-7.3,0-11c1.7,2.6,2.9,5.3,4.1,8c0.5,1.1,0.8,2,2.3,2c1.5,0,2-0.8,2.4-2c1.2-2.7,2.4-5.4,3.6-8.1c0.5,3.9,0.5,7.6,0.4,11.3
	c0,1.5,0.2,2.3,2,2.3c1.8,0,1.7-1,1.7-2.2c0-6.3,0-12.5-0.1-18.8c0-0.9,0.8-2.3-0.9-2.6c-1.5-0.2-2.6-0.1-3.3,1.7
	C206.8,130,204.8,134.2,202.8,138.8z M180.2,147.4c1.9,0.4,1.8-0.5,1.3-1.9c-2.5-6.7-4.9-13.4-7.3-20.1c-0.4-1-0.8-1.6-2.1-1.6
	c-1.4,0-1.8,0.7-2.2,1.8c-2.3,6.5-4.6,13.1-7.1,19.6c-0.8,2.2,0,2.4,1.8,2.3c1.4,0,1.7-0.9,1.8-1.9c0.4-3,2.2-3.9,5-3.4
	c0.4,0.1,0.9,0.1,1.3,0c2.9-0.6,4.5,0.5,5,3.4C177.9,147,178.7,147.7,180.2,147.4z M39.8,135.4c0,3.4,0,6.8,0,10.2
	c0,1.3,0.3,1.9,1.8,1.9c1.5,0,1.8-0.7,1.7-2c-0.1-0.9,0-1.8,0-2.7c0-4.6,0-4.6,4.4-4.6c0.7,0,1.4,0,2.1-0.1c3.9-0.5,6.4-3.5,6.3-7.3
	c-0.1-3.8-2.8-6.6-6.8-6.8c-2.4-0.1-4.8,0.1-7.2-0.1c-1.7-0.1-2.4,0.4-2.3,2.2C39.9,129.2,39.8,132.3,39.8,135.4z M89.8,147.5
	c1.5,0.2,1.7-0.7,1.7-1.9c0.1-1.5-0.7-1.7-1.9-1.7c-1.5-0.1-1.7,0.7-1.7,2C87.8,147.3,88.5,147.7,89.8,147.5z M186.1,143.9
	c-1.5-0.3-1.7,0.6-1.7,1.8c0,1.5,0.6,1.8,1.9,1.8c1.5,0,1.8-0.6,1.8-1.9C188,144.2,187.4,143.7,186.1,143.9z M220.9,145.7
	c0.3-1.4-0.4-1.8-1.7-1.8c-1.6,0-1.7,0.8-1.7,1.9c0,1.2,0.4,1.7,1.7,1.7C220.5,147.5,221.1,147.1,220.9,145.7z M55,145.9
	c-0.3,1.2,0.4,1.6,1.6,1.6c1.5,0.1,1.8-0.6,1.8-1.9c0-1.2-0.4-1.7-1.7-1.7C55.2,143.9,54.7,144.5,55,145.9z"/>
<path class="st2" d="M97.3,19.2c1.2-2.6,2.1-4.7,3-6.8c0.3-0.8,0.7-1.5,1.7-1.3c1,0.2,0.7,1.1,0.7,1.8c0,3,0,6.1,0,9.1
	c0,0.8,0.2,1.8-1.1,1.7c-1.1-0.1-0.9-0.9-0.9-1.6c0-1.6,0-3.2-0.4-5c-0.6,1.3-1.2,2.7-1.9,3.9c-0.7,1.3-1.6,1.5-2.3,0
	c-0.7-1.3-1.3-2.7-2.4-3.9c0,1.7,0,3.5,0,5.2c0,0.6,0,1.3-0.9,1.3c-0.9,0-0.9-0.7-0.9-1.3c0-3.2,0-6.4,0-9.7c0-0.6-0.2-1.3,0.7-1.5
	c0.9-0.2,1.3,0.4,1.6,1.1C95.1,14.3,96,16.4,97.3,19.2z"/>
<path class="st2" d="M128.7,18.6c0-2,0-4,0-6c0-0.7,0-1.5,1-1.5c1.1,0,0.9,0.9,0.9,1.5c0,3.1,0,6.2,0,9.4c0,0.6,0.3,1.5-0.8,1.7
	c-0.9,0.1-1.3-0.4-1.7-1c-1.5-2.4-3.1-4.8-5.1-7.8c0,2.9,0,5.1,0,7.3c0,0.7,0.2,1.5-0.9,1.6c-1.2,0-1.1-0.9-1.1-1.7c0-3,0-6.1,0-9.1
	c0-0.7-0.2-1.5,0.8-1.8c1-0.3,1.4,0.4,1.9,1.1c1.4,2.2,2.8,4.4,4.2,6.6C128.3,18.7,128.5,18.7,128.7,18.6z"/>
<path class="st3" d="M149,259.9c0-1.9,0-3.9,0-5.8c0-0.8-0.2-1.8,1-1.8c1.3-0.1,1,1,1,1.7c0,3,0,6.1,0,9.1c0,0.6,0.3,1.5-0.7,1.7
	c-0.8,0.2-1.3-0.3-1.8-0.9c-1.2-1.9-2.4-3.8-3.6-5.6c-0.3-0.5-0.4-1.2-1.5-1.4c0,2.2,0,4.2,0,6.3c0,0.7,0.1,1.5-0.9,1.6
	c-1.2,0.1-1.1-0.9-1.1-1.7c0-3,0-6.1,0-9.1c0-0.7-0.3-1.5,0.7-1.7c1-0.2,1.5,0.3,1.9,1.1c1.4,2.2,2.9,4.5,4.3,6.7
	C148.6,260,148.8,260,149,259.9z"/>
<path class="st2" d="M109.5,257.1c0,2,0,4.1,0,6.1c0,0.7,0,1.5-1,1.5c-1.1,0-0.9-0.9-0.9-1.5c0-3.1,0-6.2,0-9.4
	c0-0.6-0.2-1.3,0.7-1.5c0.8-0.2,1.3,0.2,1.8,0.9c1.5,2.4,3.1,4.8,5.1,7.2c0-2.1,0-4.3,0-6.4c0-0.7-0.2-1.8,1.1-1.7
	c1,0.1,0.9,0.9,0.9,1.6c0,3,0,6.1,0,9.1c0,0.7,0.2,1.5-0.8,1.7c-0.8,0.2-1.4-0.2-1.8-0.9c-1.5-2.3-3-4.6-4.4-6.9
	C109.9,257,109.7,257,109.5,257.1z"/>
<path class="st3" d="M137.6,17.3c0.1-1,0-2,0.2-2.9c0.4-2,1.8-3.1,3.7-3.4c1.8-0.4,3.3,0.4,4.4,1.9c0.3,0.5,0.9,1.1,0.2,1.6
	c-0.5,0.4-1.1,0.3-1.5-0.2c-1-1.2-2.1-2-3.7-1.1c-1.5,0.9-1.1,2.5-1.2,3.9c0,0.9,0.1,1.8,0.1,2.7c0.1,1.2,0.9,1.7,1.9,2
	c0.9,0.2,1.8-0.2,2.4-1c0.6-0.9,1.3-2-0.7-2.2c-0.7-0.1-1.3-0.1-1.3-1c0-1.1,0.9-0.9,1.6-1c2.9-0.2,3.5,0.5,3,3.3
	c-0.5,2.3-2.5,3.9-4.8,3.9c-2.3-0.1-4.1-1.9-4.2-4.3C137.6,18.8,137.6,18.1,137.6,17.3C137.6,17.3,137.6,17.3,137.6,17.3z"/>
<path class="st4" d="M148.9,17.1c0-1.6,0-3.2,0-4.8c0-0.6,0-1.3,0.9-1.3c0.8,0,1.1,0.5,1.1,1.2c0,0.4,0,0.9,0,1.3
	c0.1,2.5,1.8,3.7,4.2,2.7c0.8-0.3,0.7-0.9,0.8-1.5c0-0.9,0-1.8,0-2.7c0-0.6,0.1-1.1,0.9-1.1c0.6,0,1.1,0.3,1.1,0.9c0,3.7,0,7.3,0,11
	c0,0.5-0.4,0.7-0.9,0.7c-0.7,0-1-0.3-1-0.9c0-0.5-0.1-1.1,0-1.6c0.1-1.7,0.1-3-2.4-2.9c-2.3,0-2.8,0.9-2.5,2.8c0.1,0.5,0,1.1,0,1.6
	c0,0.8-0.5,1.1-1.2,1.1c-0.7,0-0.8-0.6-0.8-1.1C148.9,20.7,148.9,18.9,148.9,17.1z"/>
<path class="st5" d="M118.8,15c-0.3-3-2.7-4.2-7-4c-3.3,0.2-1.5,2.6-1.9,4c-0.2,0.8,0,1.6,0,2.4c0,1.5,0,3,0,4.5
	c0,0.6-0.1,1.2,0.6,1.6c3.3,1.9,8.2-0.8,8.4-4.6C118.9,17.6,119,16.3,118.8,15z M116.9,19.9c-0.5,2-2.1,2.2-3.8,2.1
	c-2-0.1-1-1.7-1.2-2.6c-0.1-0.6,0-1.2,0-1.9c0-0.7-0.1-1.4,0-2.1c0.2-0.9-0.7-2.3,1.1-2.4c1.5-0.1,3.1-0.1,3.7,1.7
	C117.3,16.4,117.3,18.1,116.9,19.9z"/>
<path class="st3" d="M139.2,258.3c0.1,4.5-1.4,6.7-4.5,6.7c-3.1,0-4.6-2.3-4.5-6.8c0-1.1,0-2.2,0.3-3.2c0.7-2.1,2.4-3.1,4.5-3
	c2.2,0.2,3.8,1.4,4.2,3.8C139.3,256.7,139.2,257.5,139.2,258.3z M132.2,258.5C132.2,258.5,132.2,258.5,132.2,258.5
	c0,0.5,0,1.1,0,1.6c0,1.7,0.8,2.8,2.5,2.8c1.7,0,2.5-1.2,2.5-2.9c0-1.2,0-2.5-0.1-3.7c-0.1-1.5-1-2.3-2.4-2.3
	c-1.4,0-2.3,0.9-2.4,2.4C132.2,257.1,132.2,257.8,132.2,258.5z"/>
<path class="st2" d="M119.4,258.3c0-0.9-0.1-1.8,0-2.7c0.4-2.2,2-3.4,4.1-3.6c2.1-0.1,3.9,0.8,4.5,3c0.6,2,0.5,4.1,0.2,6.1
	c-0.5,2.5-2.4,4-4.7,3.8c-2.4-0.2-4-2-4.1-4.5C119.3,259.8,119.4,259.1,119.4,258.3C119.4,258.3,119.4,258.3,119.4,258.3z
	 M126.3,258.5C126.3,258.5,126.4,258.5,126.3,258.5c0-0.5,0.1-1.1,0-1.6c0-1.6-0.8-2.8-2.5-2.9c-1.6-0.1-2.3,1-2.6,2.5
	c-0.3,1.5-0.3,3,0.1,4.5c0.3,1.3,1.1,2.1,2.4,2c1.4,0,2.3-0.9,2.5-2.3C126.4,260,126.3,259.2,126.3,258.5z"/>
<path class="st2" d="M162.6,18c0-1-0.1-2,0-2.9c0.1-1.5-0.2-2.5-2-2.3c-0.6,0.1-1.3,0.1-1.4-0.8c-0.1-1.1,0.8-1,1.5-1
	c2,0,4.1,0,6.1,0c0.7,0,1.3,0.2,1.2,1.1c-0.1,0.7-0.7,0.8-1.2,0.7c-2.3-0.4-2.4,0.9-2.3,2.7c0.1,2,0.1,3.9,0,5.9
	c0,0.8,0.7,2.3-1,2.2c-1.5-0.1-0.8-1.5-0.9-2.3C162.5,20.2,162.6,19.1,162.6,18z"/>
<path class="st4" d="M31.4,86.7c0,1.6-0.8,2.6-2.2,2.6c-1.5,0-2.6-0.9-2.5-2.5c0.1-1,0.3-2,0.2-3.1c-0.2-1.3,0.6-2.2,2.1-2.2
	c1.5,0,2.5,0.9,2.3,2.3C31,84.9,31,85.9,31.4,86.7z M29.2,88.1c0.7-0.1,1.1-0.5,1-1.3c-0.1-0.6-0.5-0.9-1.1-0.9
	c-0.7,0-1.2,0.4-1.2,1.1C27.9,87.7,28.4,88.1,29.2,88.1z"/>
<path class="st6" d="M135.4,17.5c0,1.6,0,3.2,0,4.8c0,0.7-0.1,1.3-0.9,1.3c-1,0.1-1.1-0.6-1.1-1.4c0-3.3,0-6.6,0-9.9
	c0-0.6,0-1.3,0.9-1.4c0.9,0,1.2,0.6,1.2,1.4C135.4,14.1,135.4,15.8,135.4,17.5z"/>
<path class="st4" d="M228.3,193c-0.7,0.8,0.2,1.5,0.3,2.2c0.2,1-0.2,1.8-1,2.3c-0.8,0.6-1.6,0.7-2.5,0.1c-0.9-0.5-1.2-1.3-1.1-2.2
	c0.1-0.8,0.7-1.6,0.2-2.5c-0.5-1,0-1.9,1-2.5c0.7-0.5,1.5-0.4,2.3,0C228.3,191,228.6,191.9,228.3,193z M226.2,194.5
	c-0.7,0.1-1.1,0.5-1.1,1.2c0,0.6,0.4,1,0.9,1.1c0.7,0.1,1.2-0.3,1.3-1C227.4,195,227,194.6,226.2,194.5z"/>
<path class="st6" d="M15.1,169.6c1.5,0.4,3.3,1.5,3-1.2c-0.1-0.6-0.5-1.1-1.1-0.9c-2.6,1.1-2-0.8-2.1-2.1c-0.2-2,1.2-1.8,2.4-1.7
	c0.6,0,1.3-0.2,1.7,0.4c0.1,0.6-0.4,0.7-0.8,0.8c-0.7,0.2-1.9-0.5-1.9,0.7c-0.1,1.2,1.1,0.4,1.7,0.7c1.3,0.6,1.5,1.7,1.4,2.9
	c-0.1,1.2-0.6,2.1-1.8,2.4C16.4,171.8,15.5,171.4,15.1,169.6z"/>
<path class="st4" d="M238.9,108.9c-0.9,1-2.2,0.1-3.2,1.3c2.1,0.5,3.8,1.1,3.4,3.6c-0.2,1.1-0.5,1.9-1.7,2.2
	c-1.3,0.3-2.3-0.1-2.7-1.4c0.7-0.8,1-0.1,1.4,0.1c1,0.5,1.6,0.1,1.7-0.9c0.1-0.9-0.3-2-1.2-1.6c-2.8,1-1.8-1.1-2-2.3
	c-0.3-2.1,1.3-1.7,2.5-1.7C237.8,108.1,238.5,108.1,238.9,108.9z"/>
<path class="st7" d="M29,190.1c-1.4,2.4,1.1,3.6,1.5,5.4c0.2,0.9,0,1.6-0.5,2.2c-0.6,0.7-1.1,0-1.5-0.4c-0.8-0.9-3.2,0.6-2.8-1.4
	C26.2,193.8,27,191.6,29,190.1z M28.7,194.6c-0.1-0.3,0-0.8-0.5-0.7c-0.5,0-0.6,0.5-0.8,0.9c-0.2,0.4,0.1,0.6,0.5,0.6
	C28.5,195.4,28.7,195.1,28.7,194.6z"/>
<path class="st3" d="M74.3,44.7c0,0.7,0.1,1.4,0,2.1c-0.2,1.2-1.1,1.8-2.3,1.8c-1-0.1-1.9-0.6-2-1.8c-0.1-1.2,0-2.3-0.1-3.5
	c0-1.4,0.5-2.5,2.1-2.5c1.7,0,2.3,1,2.3,2.6C74.3,43.8,74.3,44.2,74.3,44.7C74.3,44.7,74.3,44.7,74.3,44.7z M73.2,44.7
	C73,43.7,73.8,42,72,42c-1.4,0-1,1.5-0.9,2.4c0.1,1-0.8,2.7,1,2.8C73.6,47.3,73,45.6,73.2,44.7z"/>
<path class="st8" d="M207.9,220.4c0.4-1.7,0.8-2.9-0.9-4.1c-0.9-0.6-0.6-2,0.1-2.9c0.6-0.8,1.5-1,2.4-0.7c1.1,0.4,1.8,1.3,1.6,2.5
	C210.6,217.2,209.6,219,207.9,220.4z M209.9,214.9c-0.1-0.6-0.3-1.1-1.1-1.1c-0.7,0-0.9,0.5-0.9,1c-0.1,0.6,0.2,1.1,0.8,1.2
	C209.3,216,209.7,215.6,209.9,214.9z"/>
<path class="st3" d="M192.4,235.5c0,0.7,0.1,1.4,0,2.1c-0.3,1.3-1.2,2.1-2.5,1.8c-2.8-0.6-1.6-2.9-1.8-4.6c-0.2-1.5,0-3,1.9-3.2
	c1.3-0.1,2.2,0.6,2.4,2C192.5,234.2,192.4,234.9,192.4,235.5C192.4,235.5,192.4,235.5,192.4,235.5z M191.3,235.6
	c-0.2-1,0.4-2.6-1.1-2.5c-1.8,0-1,1.7-1,2.7c0,0.9-0.6,2.5,1.1,2.4C191.8,238.1,191.1,236.6,191.3,235.6z"/>
<path class="st6" d="M69.7,238c0.7,0.7,1.8-0.1,2.4,1.1c-1.1,0.6-2.3,0.3-3.4,0.4c-1.2,0-1.4-0.6-0.7-1.5c0.5-0.7,1.1-1.4,1.6-2.1
	c0.6-0.8,1.6-1.5,0.8-2.5c-1-1.2-1.5,0.8-2.7,0.5c-0.2-1.3,0.6-1.9,1.7-2.2c1-0.2,1.8,0.2,2.2,1.1C73,235.2,70.2,236.1,69.7,238z"/>
<path class="st5" d="M107.2,17.5c0,1.7,0,3.4,0,5.1c0,0.6-0.2,1.1-0.9,1.1c-0.7,0-0.9-0.5-0.9-1c0-3.4,0-6.7,0-10.1
	c0-0.5,0-1.1,0.7-1.2c0.9-0.1,1,0.5,1,1.2C107.2,14.1,107.2,15.8,107.2,17.5z"/>
<path class="st6" d="M243.2,138.1c-0.9,1.8-1.2,3.2,0.6,4.4c0.8,0.5,0.4,1.8-0.1,2.7c-0.6,0.8-1.4,1.1-2.4,0.8
	c-0.9-0.3-1.5-1-1.7-1.9C239.4,142.6,241.3,139.1,243.2,138.1z M240.8,143.8c0.1,0.7,0.5,1.1,1.3,1.1c0.6-0.1,0.9-0.6,0.8-1.2
	c0-0.7-0.3-1.3-1.1-1.2C241.1,142.5,240.8,143.1,240.8,143.8z"/>
<path class="st6" d="M43.2,214.6c0.6-1.8,1.6-2.3,3-1.9c1.2,0.4,1.5,1.5,1.2,2.6c-0.2,0.7-0.1,1.4,0.1,2.1c0.3,1.3-0.1,2.3-1.4,2.8
	c-1.5,0.7-2.3-0.2-3-1.3c0.6-0.8,1-0.3,1.4-0.1c0.6,0.3,1.3,0.3,1.6-0.3c0.3-0.6,0.1-1.2-0.6-1.6c-0.7-0.3-1.2-0.7-0.2-1.2
	c0.7-0.4,1.2-0.9,0.5-1.7c-0.7-0.8-1.3-0.1-1.8,0.3C44,214.5,43.7,214.5,43.2,214.6z"/>
<path class="st8" d="M44.8,64.7c0.8-1.7,1.3-3.2-0.6-4.3c-0.8-0.5-0.5-1.8,0.1-2.7c0.6-0.8,1.4-1,2.4-0.9c1,0.2,1.5,1,1.7,1.9
	C48.6,60.2,46.7,63.7,44.8,64.7z M47,59.1c-0.1-0.6-0.2-1.1-0.9-1c-0.8,0-1.1,0.5-1,1.2c0.1,0.6,0.5,0.9,1.1,0.9
	C46.8,60.2,47,59.7,47,59.1z"/>
<path class="st8" d="M15.3,138.1c-1,1.8-1.2,3.2,0.6,4.4c0.8,0.6,0.5,1.8-0.1,2.7c-0.6,0.8-1.4,1.1-2.3,0.9c-1-0.2-1.5-1-1.7-1.9
	C11.4,142.7,13.3,139.2,15.3,138.1z M15.1,143.5c-0.2-0.7-0.5-1.2-1.3-1c-0.7,0.1-0.9,0.8-0.8,1.5c0.1,0.6,0.4,1,1.1,0.9
	C14.8,144.8,15.1,144.2,15.1,143.5z"/>
<path class="st6" d="M15.7,115.7c0.5-1.4,1.1-2.9,1.6-4.3c0.2-0.5,0.9-1.1,0.3-1.7c-0.6-0.5-1.1-0.1-1.5,0.4
	c-0.5,0.6-0.9,0.3-1.1-0.3c-0.1-0.5-0.2-1.2,0.4-1.4c1.2-0.5,2.4-0.4,3.6-0.1c0.5,0.1,0.6,0.7,0.4,1.1c-0.9,2.3-1.5,4.6-2.8,6.7
	C16.3,115.9,16,115.8,15.7,115.7z"/>
<path class="st6" d="M227.8,81.9c-0.5,1.2-1.1,2.4-1.6,3.6c-0.2,0.5-1,1.1,0.1,1.5c0.6,0.2,1-0.2,1-0.9c0.1-0.6,0.3-1.7,0.9-0.9
	c0.6,0.7,1.2,2,0.6,3.2c-0.3,0.5-0.5,1.3-1.4,0.6c-0.1-0.1-0.2-0.3-0.3-0.4c-0.8-1-3.2,0.6-2.9-1.3c0.3-2,1.3-4.1,2.8-5.7
	C227.3,81.6,227.5,81.7,227.8,81.9z"/>
<path class="st6" d="M206.8,63.2c1-0.6,1.4,0.2,2,0.2c0.7,0,1.5-0.5,1.1-1.1c-0.9-1.2-0.3-2.1-0.2-3.3c0.2-2.3-1.7,0.1-2.8-0.4
	c0.2-1.5,1.1-1.9,2.4-1.8c1.1,0.1,1.9,0.9,1.8,1.9c-0.1,1.2-0.2,2.4,0.1,3.6c0.2,1.1-0.5,1.8-1.6,2.2
	C208.3,65.1,207.5,64.4,206.8,63.2z"/>
<path class="st4" d="M182.9,41.1c-0.1-1.2,0.6-1.8,1.6-2c0.9-0.2,1.6,0.1,2.1,0.7c0.7,0.8,0.7,1.7,0.2,2.5c-0.6,1.1-1.4,2-2.2,3
	c0.6,0.8,1.9-0.1,2.3,0.9c-0.2,0.7-0.7,0.6-1.1,0.6c-1-0.1-2.4,0.6-2.9-0.5c-0.5-1,0.8-1.6,1.3-2.4c0.1-0.1,0.3-0.3,0.3-0.4
	c0.5-0.9,1.9-1.6,1.2-2.7C184.8,39.3,184,41.4,182.9,41.1z"/>
<path class="st3" d="M235.1,165.9c-0.3-0.8-0.6-1.7,0.2-2c1.2-0.3,2.5-0.5,3.6,0.1c0.6,0.4,0.2,1.3-0.1,2c-0.9,1.9-1.1,4.1-3,5.9
	c-0.3-2.1,0.9-3.4,1.3-4.9c0.1-0.6,0.9-1.3,0.2-1.9C236.3,164.3,236,165.6,235.1,165.9z"/>
<path class="st7" d="M93.5,32.1c-0.4,1,0.7,3.4-0.7,3.5c-1.4,0-0.5-2.4-0.7-3.7c-0.2-0.7,0.3-1.6-0.5-2.2c-0.6-0.4-0.6-0.9,0-1.3
	c0.3-0.2,0.8-0.4,1.2-0.4c0.7,0,0.7,0.7,0.7,1.2C93.5,30.1,93.5,31,93.5,32.1z"/>
<path class="st8" d="M158.3,35.7c-1.4-2.1,0.2-4.7-1.5-6.7c-0.3-0.3,0.5-0.8,1-1c0.6-0.2,1.1,0.1,1.1,0.8
	C158.8,31.1,159.3,33.5,158.3,35.7z"/>
<path class="st8" d="M98.2,35.7c-1.5-2.1,0.2-4.7-1.6-6.7c-0.3-0.3,0.5-0.8,1-1c0.6-0.2,1.1,0.1,1.1,0.7
	C98.7,31.1,99,33.4,98.2,35.7z"/>
<path class="st7" d="M97.8,247.8c-0.3,0.9,0.7,3.2-0.6,3.2c-1.6-0.1-0.5-2.3-0.8-3.6c-0.2-0.7,0.1-1.5-0.6-2.2
	c-0.8-0.8,0-1.2,0.7-1.5c0.7-0.3,1.3,0,1.3,0.8C97.8,245.5,97.8,246.5,97.8,247.8z"/>
<path class="st8" d="M162.6,251.4c-1.5-0.7-1-1.7-1.1-2.5c-0.2-1.2,0.5-2.6-0.7-3.8c-0.7-0.6,0.1-1.1,0.7-1.3
	c0.5-0.2,1.2-0.2,1.3,0.5C162.8,246.6,163,248.9,162.6,251.4z"/>
<path class="st2" d="M66.6,48.2c-0.6-0.9-0.3-2-0.3-2.9c-0.1-0.8,0-1.6-0.1-2.4c-0.1-0.6-1.7-0.9-0.4-1.8c0.3-0.2,0.7-0.4,1-0.3
	c1.1,0.4,0.6,1.4,0.6,2.1c0.1,1.8,0,3.5,0,5.3C67.1,48.2,66.9,48.2,66.6,48.2z"/>
<path class="st5" d="M184.9,239.3c-0.8-1.2-0.4-2.6-0.6-3.8c-0.1-0.7,0.7-1.8-0.7-2.2c-0.4-0.1-0.3-0.6-0.1-0.8
	c0.3-0.3,0.7-0.5,1.1-0.5c0.6-0.1,0.7,0.4,0.7,0.9C185.3,235,185.7,237.1,184.9,239.3z"/>
<path class="st3" d="M156.9,251.1c-0.8-1.2-0.5-2.5-0.6-3.7c-0.1-0.7,0.1-1.6-0.3-2c-0.4-0.5-1.1-0.6-0.3-1.3
	c0.2-0.2,0.6-0.3,0.9-0.3c0.7,0,0.8,0.6,0.8,1.1C157.4,246.9,157.7,249,156.9,251.1z"/>
<path class="st9" d="M66.7,134.1c0,3.7,0,7.4,0,11.1c0,1.5-0.2,2.3-2,2.3c-1.8,0-1.7-1-1.7-2.2c0-6.4,0-12.9,0-19.3
	c0-0.7-0.6-2,0.9-2.1c1.2-0.1,2.4-0.5,3.1,1.2c1.5,3.8,3.3,7.5,5,11.3c0.3,0.7,0.7,1.4,1.2,2.5c2-4.7,4-8.8,5.6-13.1
	c0.7-1.6,1.5-2.2,3.2-2c2,0.2,1.1,1.8,1.2,2.7c0.1,6.3,0,12.5,0.1,18.8c0,1.3-0.1,2.2-1.8,2.2c-1.7,0-1.9-0.7-1.9-2.1
	c0.1-3.8,0-7.5-0.5-11.5c-1.1,2.5-2.1,5-3.3,7.5c-0.6,1.2-0.7,2.7-2.8,2.7c-1.9-0.1-2-1.5-2.5-2.6c-1.2-2.5-2.2-5-3.3-7.4
	C67,134,66.9,134.1,66.7,134.1z"/>
<path class="st9" d="M202.8,138.8c2-4.6,3.9-8.9,5.6-13.2c0.7-1.8,1.9-2,3.3-1.7c1.7,0.3,0.9,1.7,0.9,2.6c0.1,6.3,0,12.5,0.1,18.8
	c0,1.2,0.1,2.2-1.7,2.2c-1.8,0-2-0.8-2-2.3c0.1-3.7,0-7.5-0.4-11.3c-1.2,2.7-2.4,5.4-3.6,8.1c-0.5,1.1-0.9,2-2.4,2
	c-1.6,0-1.9-1-2.3-2c-1.2-2.7-2.4-5.4-4.1-8c0,3.7,0,7.3,0,11c0,1.3,0.4,2.7-1.9,2.6c-2-0.1-1.8-1.2-1.8-2.5c0-6.3,0-12.5,0-18.8
	c0-0.8-0.6-2.2,1-2.3c1.3-0.2,2.5-0.3,3.2,1.5c1.7,4.1,3.5,8.2,5.4,12.2C202.2,138,202.4,138.2,202.8,138.8z"/>
<path class="st9" d="M180.2,147.4c-1.6,0.3-2.3-0.4-2.5-1.8c-0.4-2.9-2.1-4-5-3.4c-0.4,0.1-0.9,0.1-1.3,0c-2.8-0.5-4.6,0.4-5,3.4
	c-0.1,0.9-0.5,1.8-1.8,1.9c-1.8,0-2.6-0.1-1.8-2.3c2.5-6.5,4.8-13.1,7.1-19.6c0.4-1.1,0.8-1.8,2.2-1.8c1.2,0,1.7,0.6,2.1,1.6
	c2.4,6.7,4.9,13.4,7.3,20.1C182,146.9,182.1,147.9,180.2,147.4z M172.2,129.2c-1.2,1.8-1.4,3.5-2,5.2c-1.7,5.1-1.7,5,3.6,4.7
	c1.2-0.1,1.6-0.3,1.2-1.6C174.1,134.8,173.2,132.2,172.2,129.2z"/>
<path class="st10" d="M39.8,135.4c0-3.1,0.1-6.2,0-9.4c-0.1-1.8,0.6-2.3,2.3-2.2c2.4,0.1,4.8,0,7.2,0.1c4,0.2,6.7,3,6.8,6.8
	c0.1,3.9-2.4,6.8-6.3,7.3c-0.7,0.1-1.4,0.1-2.1,0.1c-4.4,0.1-4.4,0.1-4.4,4.6c0,0.9,0,1.8,0,2.7c0.1,1.3-0.2,2-1.7,2
	c-1.4,0-1.8-0.6-1.8-1.9C39.8,142.2,39.8,138.8,39.8,135.4z M43.3,130.9c0.1,4.4-0.5,3.9,3.2,3.9c4.3,0,6.1-1.1,6.1-3.8
	c0-2.7-1.6-3.8-5.8-3.7C42.7,127.3,43.3,126.7,43.3,130.9z"/>
<path class="st11" d="M89.8,147.5c-1.3,0.2-2-0.2-2-1.7c0-1.2,0.2-2,1.7-2c1.2,0,2,0.2,1.9,1.7C91.4,146.8,91.3,147.7,89.8,147.5z"
	/>
<path class="st11" d="M186.1,143.9c1.3-0.2,1.9,0.3,1.9,1.7c0,1.3-0.3,2-1.8,1.9c-1.3,0-1.9-0.3-1.9-1.8
	C184.3,144.5,184.5,143.7,186.1,143.9z"/>
<path class="st12" d="M220.9,145.7c0.3,1.4-0.4,1.8-1.7,1.8c-1.3,0-1.7-0.5-1.7-1.7c0-1.2,0.1-2,1.7-1.9
	C220.5,143.9,221.1,144.3,220.9,145.7z"/>
<path class="st12" d="M55,145.9c-0.2-1.4,0.2-2,1.7-2c1.3,0,1.7,0.5,1.7,1.7c0,1.3-0.3,2-1.8,1.9C55.3,147.5,54.6,147.2,55,145.9z"
	/>
<path class="st13" d="M132.2,258.5c0-0.7,0-1.4,0.1-2.1c0.1-1.5,1-2.4,2.4-2.4c1.4,0,2.4,0.8,2.4,2.3c0.1,1.2,0.1,2.5,0.1,3.7
	c0,1.7-0.7,2.9-2.5,2.9c-1.7,0-2.5-1.1-2.5-2.8C132.2,259.6,132.2,259.1,132.2,258.5C132.2,258.5,132.2,258.5,132.2,258.5z"/>
<path class="st13" d="M126.3,258.5c0,0.7,0.1,1.4,0,2.1c-0.2,1.4-1,2.3-2.5,2.3c-1.3,0-2.1-0.7-2.4-2c-0.4-1.5-0.4-3-0.1-4.5
	c0.3-1.5,1-2.6,2.6-2.5c1.7,0.1,2.4,1.3,2.5,2.9C126.4,257.5,126.4,258,126.3,258.5C126.4,258.5,126.3,258.5,126.3,258.5z"/>
<path class="st13" d="M29.2,88.1c-0.8,0-1.3-0.3-1.3-1c0-0.7,0.5-1.1,1.2-1.1c0.6,0,1,0.3,1.1,0.9C30.3,87.6,29.8,88,29.2,88.1z"/>
<path class="st13" d="M29.2,84.6c-0.8,0-1.3-0.3-1.3-1c0-0.7,0.5-1.1,1.2-1.1c0.6,0,1,0.3,1.1,0.9C30.3,84.1,29.8,84.5,29.2,84.6z"
	/>
<path class="st13" d="M226.2,194.5c0.7,0.2,1.1,0.6,1,1.3c-0.1,0.7-0.6,1.1-1.3,1c-0.5-0.1-0.9-0.5-0.9-1.1
	C225.1,194.9,225.5,194.5,226.2,194.5z"/>
<path class="st13" d="M226.2,191c0.7,0.2,1.1,0.6,1,1.3c-0.1,0.7-0.6,1.1-1.3,1c-0.5-0.1-0.9-0.5-0.9-1.1
	C225.1,191.4,225.5,191,226.2,191z"/>
<path class="st14" d="M28.7,194.6c0,0.5-0.2,0.9-0.8,0.9c-0.4,0-0.7-0.2-0.5-0.6c0.1-0.4,0.2-0.9,0.8-0.9
	C28.8,193.8,28.6,194.3,28.7,194.6z"/>
<path class="st13" d="M73.2,44.7c-0.2,1,0.4,2.6-1.2,2.5c-1.7-0.1-0.9-1.8-1-2.8C71,43.5,70.6,42,72,42C73.8,42,73,43.7,73.2,44.7z"
	/>
<path class="st15" d="M209.9,214.9c-0.2,0.7-0.6,1.1-1.3,1c-0.6-0.1-0.8-0.6-0.8-1.2c0.1-0.6,0.3-1,0.9-1
	C209.5,213.8,209.8,214.3,209.9,214.9z"/>
<path class="st13" d="M191.3,235.6c-0.2,1,0.5,2.5-1.1,2.6c-1.6,0.1-1.1-1.5-1.1-2.4c0.1-1-0.8-2.7,1-2.7
	C191.7,233,191.1,234.7,191.3,235.6z"/>
<path class="st15" d="M240.8,143.8c0-0.7,0.3-1.3,1-1.3c0.8-0.1,1.1,0.5,1.1,1.2c0,0.6-0.2,1.1-0.8,1.2
	C241.3,145,240.9,144.5,240.8,143.8z"/>
<path class="st13" d="M47,59.1c0,0.6-0.2,1.1-0.9,1.1c-0.6,0-1-0.4-1.1-0.9c-0.1-0.7,0.3-1.2,1-1.2C46.7,58,46.9,58.5,47,59.1z"/>
<path class="st15" d="M15.1,143.5c0,0.7-0.3,1.2-1,1.3c-0.6,0.1-1-0.3-1.1-0.9c-0.1-0.7,0.1-1.3,0.8-1.5
	C14.6,142.3,15,142.9,15.1,143.5z"/>
<path class="st16" d="M172.2,129.2c1,3,1.9,5.6,2.8,8.3c0.4,1.2,0,1.5-1.2,1.6c-5.3,0.4-5.3,0.4-3.6-4.7
	C170.8,132.7,171,131,172.2,129.2z"/>
<path class="st16" d="M43.3,130.9c0.1-4.2-0.5-3.6,3.4-3.6c4.2,0,5.8,1.1,5.8,3.7c0,2.7-1.7,3.8-6.1,3.8
	C42.7,134.8,43.3,135.3,43.3,130.9z"/>
</svg>
