<?xml version="1.0" encoding="utf-8"?>
<!-- Generator: Adobe Illustrator 20.1.0, SVG Export Plug-In . SVG Version: 6.00 Build 0)  -->
<svg version="1.1" id="Layer_1" xmlns="http://www.w3.org/2000/svg" xmlns:xlink="http://www.w3.org/1999/xlink" x="0px" y="0px"
	 viewBox="0 0 92.5 86.8" style="enable-background:new 0 0 92.5 86.8;" xml:space="preserve">
<style type="text/css">
	.st0{fill:#838285;}
	.st1{fill:#848386;}
</style>
<g>
	<path class="st0" d="M63.3,43.8c0,9.5-7.7,16.9-17.4,16.9c-9.4,0-17.2-7.7-17.3-16.8c0-9.3,7.9-17.1,17.4-17.1
		C55.6,26.8,63.3,34.4,63.3,43.8z M34.8,43.7c0,6,4.8,10.9,11,11c6.1,0.1,11.5-5,11.4-11c0-5.9-5-10.7-11.2-10.7
		C39.7,33,34.9,37.7,34.8,43.7z"/>
	<path class="st0" d="M12.8,47.3c-2.1,0-4.1,0.1-6.1,0c-1.6-0.1-2.6-1-2.5-2.7c0.1-1.6,1.2-2.4,2.6-2.4c4.1-0.1,8.2-0.1,12.3,0
		c1.6,0,2.8,1,2.8,2.6c0,1.7-1.3,2.5-2.8,2.6C17,47.4,14.9,47.3,12.8,47.3z"/>
	<path class="st1" d="M82.7,23.8c0,1.1-0.7,1.8-1.6,2.3c-3.4,1.9-6.8,3.9-10.2,5.8c-1.5,0.9-3,0.8-3.9-0.8c-1-1.7-0.1-2.9,1.4-3.8
		c3.4-2,6.8-3.9,10.2-5.7C80.8,20.5,82.9,21.7,82.7,23.8z"/>
	<path class="st1" d="M70.1,53.5c0.4,0.1,1,0.3,1.6,0.6c3.3,1.8,6.6,3.7,9.9,5.6c1.5,0.8,2.4,2.1,1.5,3.8c-0.9,1.7-2.5,1.6-4,0.9
		c-3.5-1.9-7-3.9-10.5-5.9c-1.1-0.6-1.7-1.7-1.3-3C67.8,54.2,68.6,53.6,70.1,53.5z"/>
	<path class="st1" d="M25.8,57.5c-0.2,1.2-0.9,1.9-1.9,2.5c-3.3,1.9-6.6,3.7-9.9,5.6c-1.5,0.8-3,0.9-4-0.7c-1-1.7-0.2-2.9,1.3-3.8
		c3.4-1.9,6.8-3.9,10.2-5.7C23.7,54.3,25.9,55.5,25.8,57.5z"/>
	<path class="st1" d="M25,31.1c-0.6,2.1-1.9,3.1-3.9,2.1c-3.8-1.9-7.4-4-11.1-6.2c-1.2-0.7-1.7-2.1-0.9-3.4c0.8-1.4,2.1-1.8,3.6-1
		c3.5,1.9,7,3.9,10.5,5.9C24.3,29.1,24.9,30,25,31.1z"/>
	<path class="st1" d="M25.7,7.9c1.2,0.1,2,0.7,2.6,1.7c1.9,3.2,3.7,6.3,5.6,9.5c0.9,1.5,1.2,3.2-0.5,4.3c-1.9,1.2-3-0.1-3.9-1.6
		c-1.9-3.1-3.8-6.3-5.6-9.5C22.6,10.1,23.6,7.9,25.7,7.9z"/>
	<path class="st1" d="M67.8,10.1c-0.1,0.3-0.3,1.1-0.7,1.7c-1.8,3.1-3.6,6.1-5.4,9.2c-0.9,1.6-2.3,2.5-4,1.4c-1.6-1-1.3-2.6-0.5-4
		c1.9-3.3,3.8-6.5,5.7-9.8c0.7-1.2,1.8-1.9,3.3-1.4C67.3,7.6,67.8,8.5,67.8,10.1z"/>
	<path class="st1" d="M79.4,45.7c-2.1,0-4.1,0-6.2,0c-1.6,0-2.4-1-2.5-2.5c-0.1-1.4,0.9-2.4,2.1-2.5c4.5-0.4,9.1-0.4,13.6,0
		c1.3,0.1,2.2,1.2,2,2.6c-0.1,1.5-1.1,2.4-2.6,2.4C83.7,45.8,81.6,45.7,79.4,45.7z"/>
	<path class="st0" d="M60.2,63.5c1.2,0.1,2,0.7,2.6,1.7c2,3.3,3.9,6.5,5.8,9.8c0.8,1.4,0.9,3-0.8,4c-1.8,1-2.9-0.1-3.8-1.5
		c-1.9-3.2-3.9-6.3-5.7-9.5C57.3,65.8,58.2,63.6,60.2,63.5z"/>
	<path class="st1" d="M27.1,80c-2,0-3.4-1.9-2.4-3.8c2-3.8,4.3-7.5,6.6-11.1c0.6-0.9,1.7-1.3,2.9-0.8c1.1,0.5,1.9,1.5,1.5,2.6
		c-1.9,4.6-4.4,8.9-7.6,12.7C27.9,79.9,27.4,80,27.1,80z"/>
	<path class="st0" d="M42.9,11.3c0-2-0.1-3.9,0-5.9c0.1-1.6,1-2.8,2.6-2.7c1.7,0,2.5,1.2,2.6,2.8c0,4,0.1,8,0,12.1
		c0,1.4-0.9,2.5-2.4,2.6c-1.7,0.1-2.6-1-2.7-2.6C42.8,15.5,42.9,13.4,42.9,11.3C42.9,11.3,42.9,11.3,42.9,11.3z"/>
	<path class="st1" d="M49.5,76.8c0,1.8,0,3.7,0,5.5c0,1.7-0.8,2.8-2.5,2.9c-1.5,0.1-2.6-1-2.6-2.4c-0.1-4.2-0.2-8.5,0-12.7
		c0-1.4,1.1-2.4,2.7-2.3c1.6,0,2.4,1,2.4,2.5C49.5,72.5,49.5,74.7,49.5,76.8C49.5,76.8,49.5,76.8,49.5,76.8z"/>
</g>
</svg>
