<?xml version="1.0" encoding="utf-8"?>
<!-- Generator: Adobe Illustrator 20.1.0, SVG Export Plug-In . SVG Version: 6.00 Build 0)  -->
<svg version="1.1" id="Layer_1" xmlns="http://www.w3.org/2000/svg" xmlns:xlink="http://www.w3.org/1999/xlink" x="0px" y="0px"
	 viewBox="0 0 92.5 164.8" style="enable-background:new 0 0 92.5 164.8;" xml:space="preserve">
<style type="text/css">
	.st0{fill:#FFFFFF;}
</style>
<g>
	<g>
		<path class="st0" d="M45.4,153c-5.1-0.1-9-5.5-6.5-10.1c4.7-8.9,9.8-17.6,15.1-26.2c2-3.3,6.4-3.9,9.6-2c3.1,1.9,4.6,6,2.7,9.4
			c-4.8,8.7-9.8,17.3-14.9,25.8C50.1,152.1,47.8,152.8,45.4,153z"/>
		<path class="st0" d="M38.1,19.6c0.5-3.1,1.7-5.6,4.8-6.8c3.2-1.2,6.4-0.6,8.1,2.2c5.4,8.7,10.5,17.5,15.4,26.5
			c1.7,3.2,0,7.3-2.9,9.1c-3.1,1.9-7.4,1.5-9.3-1.6C48.8,40.1,43.8,31,38.7,22C38.3,21.3,38.3,20.3,38.1,19.6z"/>
		<path class="st0" d="M19.2,126.4c-3.2-0.3-5.8-1.6-6.9-4.6c-1.2-3.1-1-6.5,1.9-8.2C22.9,108.2,31.9,103,41,98
			c3.2-1.7,7.3,0.1,9,3.1c1.7,3.1,1.2,7.4-1.9,9.3c-8.7,5.3-17.7,10.3-26.5,15.3C20.8,126.2,19.9,126.2,19.2,126.4z"/>
		<path class="st0" d="M17.9,39c2.6-0.1,4.1,0.6,5.6,1.5c7.6,4.4,15.2,8.7,22.8,13.2c4.4,2.6,5.7,6.9,3.5,10.6
			c-2.1,3.5-6.5,4.6-10.6,2.2c-8-4.5-16-9.1-23.9-13.8c-3.2-1.9-4.3-4.9-3.4-8.5C12.9,40.7,15.5,39.4,17.9,39z"/>
		<path class="st0" d="M89.2,23.9c0,4.6,0.1,9.2,0,13.8c-0.1,4.6-3.3,8-7.3,8c-4,0-7.3-3.4-7.3-8c-0.1-9.1-0.1-18.2,0-27.2
			c0.1-4.6,3.3-8,7.4-8c4,0,7.2,3.4,7.3,8C89.3,15,89.2,19.4,89.2,23.9z"/>
		<path class="st0" d="M23.6,75.3c4.5,0,8.9-0.1,13.4,0c4.6,0.1,8,3.2,8,7.2c0,4.1-3.3,7.3-7.9,7.4c-9.1,0.1-18.2,0.1-27.2,0
			c-4.6-0.1-8-3.3-8.1-7.3c0-4.1,3.5-7.3,8.4-7.4C14.6,75.3,19.1,75.3,23.6,75.3z"/>
		<path class="st0" d="M89.2,141.3c0,4.5,0.1,8.9,0,13.4c-0.1,4.6-3.2,8-7.2,8.1c-4,0.1-7.4-3.3-7.5-7.9c-0.1-9.2-0.1-18.4,0-27.7
			c0.1-4.4,3.3-7.6,7.2-7.7c4-0.1,7.3,3.3,7.4,7.9C89.3,132,89.2,136.7,89.2,141.3z"/>
	</g>
</g>
</svg>
